<svg viewBox="0 0 330 200" xmlns="http://www.w3.org/2000/svg"><g><g><g><g><g><line x1="41.171875" y1="177" x2="36.171875" y2="177" style="visibility: inherit;" fill="rgb(0, 0, 0)" stroke="rgb(204, 204, 204)" stroke-width="1px"></line><line x1="41.171875" y1="160.9090909090909" x2="36.171875" y2="160.9090909090909" style="visibility: inherit;" fill="rgb(0, 0, 0)" stroke="rgb(204, 204, 204)" stroke-width="1px"></line><line x1="41.171875" y1="144.8181818181818" x2="36.171875" y2="144.8181818181818" style="visibility: inherit;" fill="rgb(0, 0, 0)" stroke="rgb(204, 204, 204)" stroke-width="1px"></line><line x1="41.171875" y1="128.72727272727272" x2="36.171875" y2="128.72727272727272" style="visibility: inherit;" fill="rgb(0, 0, 0)" stroke="rgb(204, 204, 204)" stroke-width="1px"></line><line x1="41.171875" y1="112.63636363636364" x2="36.171875" y2="112.63636363636364" style="visibility: inherit;" fill="rgb(0, 0, 0)" stroke="rgb(204, 204, 204)" stroke-width="1px"></line><line x1="41.171875" y1="96.54545454545453" x2="36.171875" y2="96.54545454545453" style="visibility: inherit;" fill="rgb(0, 0, 0)" stroke="rgb(204, 204, 204)" stroke-width="1px"></line><line x1="41.171875" y1="80.45454545454547" x2="36.171875" y2="80.45454545454547" style="visibility: inherit;" fill="rgb(0, 0, 0)" stroke="rgb(204, 204, 204)" stroke-width="1px"></line><line x1="41.171875" y1="64.36363636363636" x2="36.171875" y2="64.36363636363636" style="visibility: inherit;" fill="rgb(0, 0, 0)" stroke="rgb(204, 204, 204)" stroke-width="1px"></line><line x1="41.171875" y1="48.272727272727266" x2="36.171875" y2="48.272727272727266" style="visibility: inherit;" fill="rgb(0, 0, 0)" stroke="rgb(204, 204, 204)" stroke-width="1px"></line><line x1="41.171875" y1="32.18181818181817" x2="36.171875" y2="32.18181818181817" style="visibility: inherit;" fill="rgb(0, 0, 0)" stroke="rgb(204, 204, 204)" stroke-width="1px"></line><line x1="41.171875" y1="16.090909090909097" x2="36.171875" y2="16.090909090909097" style="visibility: inherit;" fill="rgb(0, 0, 0)" stroke="rgb(204, 204, 204)" stroke-width="1px"></line><line x1="41.171875" y1="0" x2="36.171875" y2="0" style="visibility: inherit;" fill="rgb(0, 0, 0)" stroke="rgb(204, 204, 204)" stroke-width="1px"></line></g><g transform="translate(31.171875, 0)"><text x="0" y="177" dx="0em" dy="0.3em" style="text-anchor: end; visibility: hidden; font-family: Roboto, sans-serif; font-size: 12px; font-weight: 200;" fill="rgb(33, 33, 33)" stroke="none" stroke-width="1px">-20</text><text x="0" y="160.9090909090909" dx="0em" dy="0.3em" style="text-anchor: end; visibility: inherit; font-family: Roboto, sans-serif; font-size: 12px; font-weight: 200;" fill="rgb(33, 33, 33)" stroke="none" stroke-width="1px">-10</text><text x="0" y="144.8181818181818" dx="0em" dy="0.3em" style="text-anchor: end; visibility: hidden; font-family: Roboto, sans-serif; font-size: 12px; font-weight: 200;" fill="rgb(33, 33, 33)" stroke="none" stroke-width="1px">0</text><text x="0" y="128.72727272727272" dx="0em" dy="0.3em" style="text-anchor: end; visibility: inherit; font-family: Roboto, sans-serif; font-size: 12px; font-weight: 200;" fill="rgb(33, 33, 33)" stroke="none" stroke-width="1px">10</text><text x="0" y="112.63636363636364" dx="0em" dy="0.3em" style="text-anchor: end; visibility: hidden; font-family: Roboto, sans-serif; font-size: 12px; font-weight: 200;" fill="rgb(33, 33, 33)" stroke="none" stroke-width="1px">20</text><text x="0" y="96.54545454545453" dx="0em" dy="0.3em" style="text-anchor: end; visibility: inherit; font-family: Roboto, sans-serif; font-size: 12px; font-weight: 200;" fill="rgb(33, 33, 33)" stroke="none" stroke-width="1px">30</text><text x="0" y="80.45454545454547" dx="0em" dy="0.3em" style="text-anchor: end; visibility: hidden; font-family: Roboto, sans-serif; font-size: 12px; font-weight: 200;" fill="rgb(33, 33, 33)" stroke="none" stroke-width="1px">40</text><text x="0" y="64.36363636363636" dx="0em" dy="0.3em" style="text-anchor: end; visibility: inherit; font-family: Roboto, sans-serif; font-size: 12px; font-weight: 200;" fill="rgb(33, 33, 33)" stroke="none" stroke-width="1px">50</text><text x="0" y="48.272727272727266" dx="0em" dy="0.3em" style="text-anchor: end; visibility: hidden; font-family: Roboto, sans-serif; font-size: 12px; font-weight: 200;" fill="rgb(33, 33, 33)" stroke="none" stroke-width="1px">60</text><text x="0" y="32.18181818181817" dx="0em" dy="0.3em" style="text-anchor: end; visibility: inherit; font-family: Roboto, sans-serif; font-size: 12px; font-weight: 200;" fill="rgb(33, 33, 33)" stroke="none" stroke-width="1px">70</text><text x="0" y="16.090909090909097" dx="0em" dy="0.3em" style="text-anchor: end; visibility: hidden; font-family: Roboto, sans-serif; font-size: 12px; font-weight: 200;" fill="rgb(33, 33, 33)" stroke="none" stroke-width="1px">80</text><text x="0" y="0" dx="0em" dy="0.3em" style="text-anchor: end; visibility: hidden; font-family: Roboto, sans-serif; font-size: 12px; font-weight: 200;" fill="rgb(33, 33, 33)" stroke="none" stroke-width="1px">90</text></g><line x1="41.171875" y1="0" x2="41.171875" y2="177" fill="rgb(0, 0, 0)" stroke="rgb(204, 204, 204)" stroke-width="1px"></line></g></g><g transform="translate(41, 0)" clip-path="url(#clip_0)"><clipPath id="clip_0"><rect width="288" height="177"></rect></clipPath><g><g><g><line x1="0" y1="0" x2="0" y2="177" fill="rgb(0, 0, 0)" stroke="rgb(66, 66, 66)" stroke-width="1px" opacity="0.25"></line><line x1="24.069010416666664" y1="0" x2="24.069010416666664" y2="177" fill="rgb(0, 0, 0)" stroke="rgb(66, 66, 66)" stroke-width="1px" opacity="0.25"></line><line x1="48.13802083333333" y1="0" x2="48.13802083333333" y2="177" fill="rgb(0, 0, 0)" stroke="rgb(66, 66, 66)" stroke-width="1px" opacity="0.25"></line><line x1="72.20703125" y1="0" x2="72.20703125" y2="177" fill="rgb(0, 0, 0)" stroke="rgb(66, 66, 66)" stroke-width="1px" opacity="0.25"></line><line x1="96.27604166666666" y1="0" x2="96.27604166666666" y2="177" fill="rgb(0, 0, 0)" stroke="rgb(66, 66, 66)" stroke-width="1px" opacity="0.25"></line><line x1="120.34505208333334" y1="0" x2="120.34505208333334" y2="177" fill="rgb(0, 0, 0)" stroke="rgb(66, 66, 66)" stroke-width="1px" opacity="0.25"></line><line x1="144.4140625" y1="0" x2="144.4140625" y2="177" fill="rgb(0, 0, 0)" stroke="rgb(66, 66, 66)" stroke-width="1px" opacity="0.25"></line><line x1="168.48307291666669" y1="0" x2="168.48307291666669" y2="177" fill="rgb(0, 0, 0)" stroke="rgb(66, 66, 66)" stroke-width="1px" opacity="0.25"></line><line x1="192.55208333333331" y1="0" x2="192.55208333333331" y2="177" fill="rgb(0, 0, 0)" stroke="rgb(66, 66, 66)" stroke-width="1px" opacity="0.25"></line><line x1="216.62109375" y1="0" x2="216.62109375" y2="177" fill="rgb(0, 0, 0)" stroke="rgb(66, 66, 66)" stroke-width="1px" opacity="0.25"></line><line x1="240.69010416666669" y1="0" x2="240.69010416666669" y2="177" fill="rgb(0, 0, 0)" stroke="rgb(66, 66, 66)" stroke-width="1px" opacity="0.25"></line><line x1="264.7591145833333" y1="0" x2="264.7591145833333" y2="177" fill="rgb(0, 0, 0)" stroke="rgb(66, 66, 66)" stroke-width="1px" opacity="0.25"></line><line x1="288.828125" y1="0" x2="288.828125" y2="177" fill="rgb(0, 0, 0)" stroke="rgb(66, 66, 66)" stroke-width="1px" opacity="0.25"></line></g><g><line x1="0" y1="177" x2="288.828125" y2="177" fill="rgb(0, 0, 0)" stroke="rgb(66, 66, 66)" stroke-width="1px" opacity="0.25"></line><line x1="0" y1="160.9090909090909" x2="288.828125" y2="160.9090909090909" fill="rgb(0, 0, 0)" stroke="rgb(66, 66, 66)" stroke-width="1px" opacity="0.25"></line><line x1="0" y1="144.8181818181818" x2="288.828125" y2="144.8181818181818" fill="rgb(0, 0, 0)" stroke="rgb(66, 66, 66)" stroke-width="1px" opacity="0.25"></line><line x1="0" y1="128.72727272727272" x2="288.828125" y2="128.72727272727272" fill="rgb(0, 0, 0)" stroke="rgb(66, 66, 66)" stroke-width="1px" opacity="0.25"></line><line x1="0" y1="112.63636363636364" x2="288.828125" y2="112.63636363636364" fill="rgb(0, 0, 0)" stroke="rgb(66, 66, 66)" stroke-width="1px" opacity="0.25"></line><line x1="0" y1="96.54545454545453" x2="288.828125" y2="96.54545454545453" fill="rgb(0, 0, 0)" stroke="rgb(66, 66, 66)" stroke-width="1px" opacity="0.25"></line><line x1="0" y1="80.45454545454547" x2="288.828125" y2="80.45454545454547" fill="rgb(0, 0, 0)" stroke="rgb(66, 66, 66)" stroke-width="1px" opacity="0.25"></line><line x1="0" y1="64.36363636363636" x2="288.828125" y2="64.36363636363636" fill="rgb(0, 0, 0)" stroke="rgb(66, 66, 66)" stroke-width="1px" opacity="0.25"></line><line x1="0" y1="48.272727272727266" x2="288.828125" y2="48.272727272727266" fill="rgb(0, 0, 0)" stroke="rgb(66, 66, 66)" stroke-width="1px" opacity="0.25"></line><line x1="0" y1="32.18181818181817" x2="288.828125" y2="32.18181818181817" fill="rgb(0, 0, 0)" stroke="rgb(66, 66, 66)" stroke-width="1px" opacity="0.25"></line><line x1="0" y1="16.090909090909097" x2="288.828125" y2="16.090909090909097" fill="rgb(0, 0, 0)" stroke="rgb(66, 66, 66)" stroke-width="1px" opacity="0.25"></line><line x1="0" y1="0" x2="288.828125" y2="0" fill="rgb(0, 0, 0)" stroke="rgb(66, 66, 66)" stroke-width="1px" opacity="0.25"></line></g></g></g><g><g><line x1="0" y1="144.8181818181818" x2="288.828125" y2="144.8181818181818" fill="rgb(0, 0, 0)" stroke="rgb(153, 153, 153)" stroke-width="1.5px"></line></g></g><g><g><line x1="24.069010416666664" y1="0" x2="24.069010416666664" y2="177" fill="rgb(0, 0, 0)" stroke="rgb(153, 153, 153)" stroke-width="1.5px"></line></g></g><g><g><g><g><g><path stroke="rgb(255, 112, 67)" stroke-width="2px" d="M24.161435416666666,145.55331119624051L24.276966666666667,156.7133757817118L24.28466875,155.33174449675278L24.409827604166665,158.09120886091193L24.513805729166666,161.44107479969065L24.800708333333333,159.911653120926L24.831516666666666,159.194256825468L25.106866145833333,159.61611360048536L25.12997239583333,161.23034451759634L25.216620833333334,161.0004096136995L25.299418229166665,161.7049361023312L25.451534375,162.3375292752036L25.4630875,163.0671468351485L25.501597916666668,162.66612754155952L25.940616666666664,161.98292381570093L26.121615625,162.09885944147868L26.181306770833334,161.8874152034041L26.454730729166666,161.35563682006983L26.56833645833333,160.65156686655286L26.633804166666664,160.53745556460444L26.668463541666668,159.33076984134385L26.672314583333332,159.71293808984063L26.880270833333334,160.10031953110501L26.934185416666665,159.94960870953776L26.999653125,160.57617541825786L27.043940104166666,160.27378542078895L27.238417708333333,160.20162841957847L27.273077083333334,160.43918163561344L27.475256770833333,160.51606986765748L27.500288541666666,161.1001049616605L27.56768177083333,161.88341172277458L27.573458333333335,161.78311633465475L27.640851562499996,161.5929597619139L27.667808854166665,160.97444565858189L27.789116666666665,161.09730876423825L28.278198958333334,161.07709286340935L28.3918046875,160.99827636910655L28.399506770833334,159.94051605575888L28.4264640625,159.0064755845884L28.534293229166664,158.53551361408938L28.578580208333335,158.24495419002795L28.788461979166666,158.25485849592044L28.803866145833336,159.39986320215147L28.929025,159.49188499388282L28.97716302083333,158.91221447156656L29.22940625,159.40979894547166L29.327607812500002,160.46699427176657L29.679978125,160.4970082039917L29.92644479166667,160.8411205937059L29.9399234375,160.5099844274819L29.999614583333333,160.5365885666007L30.020795312500002,160.05557870008636L30.230677083333333,159.24393514869607L30.263410937499998,158.81731164877345L30.359686979166668,157.84787217481627L30.411676041666666,158.26095144834065L30.45596302083333,159.06585065356475L30.588823958333332,158.98514772826988L30.6388875,158.25182976921553L30.698578645833333,158.57325447503572L30.835290625,159.11699813235066L30.973928125,159.1800817239514L31.043246875,158.94963384393822L31.110640104166666,159.0120216928122L31.135671875000003,158.6271549523687L31.2107671875,158.8737807550651L31.368659895833336,159.36584590906153L31.593945833333333,159.26812714371948L31.68637083333333,158.40592797151132L31.7191046875,158.2209647415349L31.790348958333333,157.24693144035788L31.7999765625,157.47664939902137L31.809604166666666,157.93947028433365L32.013709375,158.09701339017502L32.217814583333336,158.37292176711574L32.298686458333336,159.1791783861037L32.32949479166667,159.0159365502188L32.39881354166667,158.54226794859727L32.41806875,158.4715594515819L32.452728125,159.17406625492066L32.6202484375,158.7878071154017L32.69919479166666,159.20533859393038L32.743481770833334,158.90799764524584L32.75503489583333,158.73699130078265L32.99765052083333,159.77146377638405L33.149766666666665,159.21021556499085L33.34231875,159.08180549118552L33.37312708333334,159.68457889243945L33.38660572916667,160.1621526496958L33.41933958333333,160.75446939056874L33.8679859375,159.9444599247159L33.91804947916667,160.36745688617282L33.979666145833335,160.1431569167534L34.070165625,160.69353535270355L34.09712291666666,160.65830595875215L34.100973958333334,160.13230189694323L34.185696875000005,159.3006774670569L34.21650520833333,158.52922396710358L34.42061041666667,158.4104233611235L34.47645052083333,155.9038741179185L34.643970833333334,155.11268596039397L34.81149114583334,156.05199423301985L34.81149114583334,156.375236442914L34.823044270833336,155.36557310887207L35.0232984375,156.1053004564235L35.0926171875,156.8801270550308L35.109946875,157.34300623510833L35.12920208333333,157.63671169311732L35.248584375,157.56419341484047L35.25050989583333,157.4985427749045L35.29864791666667,157.2877958377466L35.310201041666666,157.5011251364277L35.3352328125,156.77076712825613L35.47001927083333,157.221886255891L35.52971041666667,157.20718469307238L35.552816666666665,157.2093911676252L36.172834374999994,156.6251750382384L36.421226562499996,156.69242981499124L36.48669427083333,156.5507018299753L36.6465125,157.03869302964515L37.145222395833336,156.59161814969187L37.47063541666667,156.2189851112879L37.67666614583333,156.24388639176826L37.81145260416667,156.04668980213208L37.82108020833333,155.95794716940742L38.113759375,156.32475395469686L38.402587499999996,154.65854642814818L38.56625677083333,155.3023297100678L38.728000520833334,155.08696127848157L38.79346822916667,154.90128533953472L38.799244791666666,155.64937473369554L38.8011703125,155.5904852964245L39.070743229166666,155.68655444625296L39.438517708333336,156.11697702810585L39.59448489583333,156.3399786300641L39.692686458333334,156.66399614187975L39.79281354166667,156.39810389442138L39.869834374999996,157.1044999696758L39.939153125,156.91326103069827L40.51488385416667,157.47232251575218L40.59575572916667,155.36608451914907L40.59960677083333,155.28413915485572L40.78253125,155.5263116354539L40.846073437499996,155.48218413513575L41.119497395833335,155.22803334722357L41.13875260416666,154.93565046508377L41.17918854166667,154.97848642880945L41.41987864583333,154.96078131005396L41.51422916666667,155.50602602126267L41.54118645833333,155.41509244832196L41.5450375,156.13457224372772L41.58932447916667,156.4162640691373L41.75299375,156.7045459249817L42.082257812499996,156.44446512301374L42.2208953125,156.63512551220745L42.367234895833334,157.40201046401666L42.54053177083333,157.15869063481233L42.586744270833336,157.3725878721726L42.609850520833334,157.4201282506014L42.873646875,156.94083417598569L42.9025296875,156.8819621910894L42.95066770833333,157.21039463326292L43.303038020833334,157.02809527832557L43.3531015625,155.49760920259007L43.370431249999996,155.37499279157188L43.399314062500004,155.6667771005962L43.50521770833333,154.25499560287537L43.536026041666666,153.72713562451966L43.551430208333336,152.12505447587003L43.66888697916667,153.36239858854597L43.684291145833335,153.82267924283767L43.88261979166667,154.245173584513L43.94616197916667,153.88842577821245L43.95001302083333,152.89964253631356L44.362074479166665,153.2419919562917L44.510339583333334,153.0134139515296L44.795316666666665,153.41732555334895L44.89544375,153.33126059629524L44.99749635416667,153.55893194857848L45.25166510416667,152.40983158627608L45.48850416666667,151.01089170007677L45.679130729166666,149.3041314821185L45.692609375,150.61736320813944L45.72726874999999,150.44539539566858L45.90441666666667,150.61675700782584L46.083490104166664,151.70631980128837L46.1142984375,152.68458950404082L46.270265625,151.13244227199473L46.32610572916666,151.56134033162667L46.333807812500005,152.4502369895021L46.522508854166674,152.29322722665555L46.587976562499996,151.5977328359245L46.805560416666665,151.23522592716563L47.144452083333334,152.27361108326963L47.18103697916666,153.27884317873463L47.20414322916667,152.7523065213134L47.587321874999994,153.8146225343614L47.598875,154.04035477068763L47.864596875000004,154.28706358416412L48.003234375,154.8012115265227L48.328647395833336,154.86455536400632L48.53275260416667,155.87842190134126L49.0025796875,154.76718925062127L49.077675,154.94956125640888L49.14506822916666,155.54941596538234L49.46855572916667,154.3408609570945L49.5860125,153.4117499194537L49.95763802083333,152.36447082072073L49.965340104166664,151.0195403301334L50.13671145833333,148.6488024012177L50.33311458333333,147.18196940900464L50.714367708333334,147.8238794548848L50.73362291666667,149.17810559821783L50.8048671875,149.94961097703666L51.028227604166666,148.86265665433754L51.0474828125,149.7287512510208L51.32090677083333,149.95189712229885L51.47879947916667,149.28067401241L51.561596875000006,150.1666297193023L51.58085208333333,150.65776729180618L51.7637765625,151.12985460355696L51.76570208333334,151.49131987840522L51.8099890625,149.96484196392439L51.99291354166667,150.7565659305778L52.09111510416667,151.06507152554545L52.22975260416667,150.73449077740864L52.25093333333333,151.3660828490065L52.283667187499994,151.2679808144837L52.41845364583333,152.89691079060398L52.520506250000004,153.35801419682292L52.55131458333334,153.35761844071763L52.872876562500004,152.67317787901607L53.086609374999995,153.96946879302203L53.14052395833333,153.97447604267893L53.402394791666666,152.9675199508652L53.50444739583333,152.84492922955963L53.57376614583333,150.31636478307453L53.608425520833336,150.10455131798332L53.69507395833333,149.1288237656373L54.001231770833336,147.69128201248068L54.122539583333335,147.85078357609441L54.15719895833333,148.41249869103987L54.272730208333336,148.89682171144096L54.3978890625,149.4026178738602L54.45758020833333,149.09187956532708L54.596217708333334,148.81127931986694L55.094927604166664,149.38392055023456L55.11033177083334,150.16858140957396L55.20853333333333,149.17455963041093L55.505063541666665,148.65373030543364L55.56282916666667,147.9514035841857L55.67836041666666,147.38965692913948L55.974890625,146.86175833059352L56.026879687500006,147.45703128141008L56.09812395833333,148.30981806894528L56.17129375,149.10699729013402L56.18669791666667,150.50012589419742L56.24831458333334,150.65083915063502L56.402356250000004,150.46805256417343L56.42161145833333,150.64379105973305L56.47937708333333,152.1729977570535L57.024299479166665,152.11841543513128L57.07051197916667,152.0609244489454L57.149458333333335,150.64579568284316L57.530711458333336,151.19769193813505L57.704008333333334,148.3279002419406L57.86190104166667,148.4125273807285L57.97165572916666,148.27369923476041L58.479993229166666,149.0576981568776L58.53005677083333,149.25275188426167L58.76882135416667,150.6860040163511L59.12119166666667,151.2533805595529L59.290637499999995,150.47890245513682L59.58331666666667,151.29465034536003L59.63915677083334,151.87601393372884L59.74506041666667,151.94243633071548L59.797049479166674,151.7438106911721L59.808602604166666,152.2297515677656L59.89910208333333,151.82845622810197L60.035814062499995,151.82522512796564L60.1397921875,151.96036160698276L60.37085468750001,150.92523098345615L60.3824078125,150.55197130998386L60.42284375,151.13131969682027L60.476758333333336,150.50094144655472L60.4921625,150.13562366353807L60.573034375,150.59289302950074L60.75403333333333,149.57223481420056L60.85801145833333,150.28826745216185L61.30473229166666,151.98871989735602L61.51268854166666,151.832156769613L61.62244322916667,152.33297534481844L61.709091666666666,152.3986550531532L61.77070833333334,152.9071530778235L61.8034421875,151.27115393619056L62.12500416666666,150.45089285564163L62.211652604166666,147.31416950982458L62.3117796875,148.20929486825642L62.35029010416667,148.63847070175436L62.40805572916667,149.26169564595412L62.60830989583333,149.17605491327413L62.997265104166665,150.02818637602886L63.174413020833335,148.4514195792081L63.5017515625,148.40048894043042L63.70008020833333,148.03491641026304L63.7674734375,146.38218279813407L63.84256875,147.18247911595336L63.93306822916667,148.00883206738126L64.59544739583333,148.12768188775453L64.62625572916667,146.59034590461278L64.80918020833333,146.29548800234576L64.8419140625,145.66525990986582L65.1769546875,144.69164145685977L65.23664583333333,144.79710445962863L65.46000625,142.7482394025984L65.5119953125,141.83333869025563L65.5466546875,140.7890484124693L65.67566458333333,141.66221122687244L65.70262187499999,143.02550497266137L65.748834375,144.17269161110897L66.29568229166667,145.60606418611536L66.32263958333334,146.2941999482414L66.49593645833333,147.20674469200299L66.55370208333333,147.0607408757124L66.9099234375,143.02293110608716L67.07359270833334,142.73224690863998L67.14291145833333,140.76875243198165L67.3258359375,141.08513203977793L67.3258359375,141.599897622286L67.3836015625,142.62442986938674L67.65124895833333,142.72860028047984L67.67628072916666,142.80884202612737L68.31362812500001,144.47790189224992L68.42145729166667,145.6253179147219L68.43878697916666,142.74123309063475L68.57164791666666,142.43331132277834L68.79693385416667,143.85010978053498L68.8392953125,144.90284727668927L68.9432734375,143.81737692671837L68.95675208333333,142.38607513083332L68.97600729166666,142.58430265359428L69.10886822916667,143.65737646181134L69.14160208333334,143.25594511249895L69.29756927083334,144.1704820457466L69.399621875,143.92148047731988L69.52478072916666,144.98342054788097L69.5671421875,145.9469964158064L69.61720572916667,146.97721668205574L69.89255520833333,144.9485513088983L69.95224635416668,143.67021552554607L70.06585208333334,143.6436651834712L70.97854895833333,143.83224455901862L71.01320833333334,144.73296644168366L71.19998385416666,144.91141262042248L71.51191822916667,145.4527958229441L71.5773859375,144.7866580018226L71.79882083333334,144.12021191155688L71.90665,144.92763514442353L72.15311666666666,146.20693971695212L72.17429739583334,147.3473288422813L72.2936796875,147.008004394655L72.334115625,147.8213096531681L72.5131890625,147.61821144881822L72.95413333333333,145.8323653873742L72.9984203125,147.4960220499446L73.03307968749999,147.4372179290358L73.11587708333334,148.00043584510203L73.26799322916666,148.09071443475077L73.535640625,146.56497244474403L73.6916078125,145.96027977445578L73.72241614583334,145.2270687224925L73.87260677083333,146.0253999949618L73.97658489583334,145.55908715106435L74.4656671875,145.03885060685704L74.75064427083333,146.2266800609904L74.94704739583332,146.60681879513197L74.96052604166667,146.58060148774499L75.21854583333332,145.9994423825156L75.39569374999999,144.22980496730094L75.81930833333334,145.09003460941196L76.34882656250001,145.7527574004197L76.37963489583333,143.4716030593035L76.40466666666667,143.96236338963695L76.57411250000001,139.66944144345666L76.7416328125,136.38811828327513L76.8802703125,135.7403035422529L77.01313125,138.1113538116543L77.19027916666667,134.94219654348993L77.31158697916666,133.6555589502149L77.77371197916666,134.01156492880278L77.90079635416667,129.76272311792934L77.95278541666666,129.5167902231605L78.74417447916667,131.06569668274824L78.76535520833333,133.53533835251662L78.92324791666667,132.87352103219914L78.95020520833334,133.83243304552656L79.30835208333333,130.55385668495748L79.39114947916667,133.09738815048664L79.43543645833333,128.50096831279393L79.6299140625,128.2570777269369L79.889859375,129.90695196043757L79.89371041666666,130.55734644523892L80.20179375,131.73585656478295L80.2768890625,133.24165225717465L80.40012239583334,132.3749915206623L80.48291979166666,131.75845237877783L80.58112135416665,126.41786780263212L80.7390140625,127.95619059217857L81.0105125,130.19370448443706L81.26083020833335,130.1999707973986L81.33255585937499,132.0415468129804L81.334,133.93551252890333L81.49381822916666,135.4247239948639L81.55928593750001,134.13366711855977L81.75809596354166,136.52248738738479L81.8481140625,135.79738654168497L81.89625208333334,136.15028516633336L81.96605221354166,137.73544126024026L82.0271875,132.4071390519131L82.131165625,133.66739526325037L82.40458958333333,136.09287382906348L82.43539791666667,136.3487650420468L82.708821875,137.10508740052484L82.73963020833332,135.16208500153957L82.87249114583334,135.20142077155427L82.91148294270833,135.85756248091243L82.92640572916666,136.36880817597594L83.18875794270834,136.79691140384054L83.240265625,137.32259341497556L83.32306302083333,138.05403782894342L83.3615734375,139.79383468742108L83.84873020833334,140.16915851392335L83.99121875,140.63183482804448L84.05090989583334,142.28005734208287L84.19147291666667,139.82532785195139L84.40713125,139.73497634836622L84.57465156250001,139.06700549027687L84.59198124999999,140.5996231820218L84.59246263020833,137.51433680181898L85.06758489583333,138.09629162271767L85.14653125,139.92852923327098L85.45894700520833,139.5477660899711L85.828165625,138.9831823720082L86.29029062500001,138.82106890203457L86.53098072916666,136.9341134310372L86.66817408854166,129.28343680278834L86.81980885416667,132.15480364854236L87.05472239583332,132.61095032966634L87.1047859375,133.25428365781212L87.241979296875,128.4178956841263L87.30504010416666,129.45553345639456L87.35365950520833,132.1523243583997L87.57894544270833,131.678382646187L87.87306875,125.44101611743591L87.95057096354167,126.438125323983L88.023259375,128.22556099607607L88.08487604166666,130.27297626976642L88.21003489583333,127.36392511488837L88.22351354166668,122.73211515067405L88.52196927083334,122.12993382234649L88.78191458333333,122.07885878287556L88.9648390625,124.37643165271186L89.3287625,125.83214922316053L89.6811328125,127.80980276262676L90.17599166666668,129.38718546018416L90.28574635416666,131.46677179036323L90.2934484375,132.72335333857393L90.4551921875,126.8148297126467L90.49370260416667,128.10699529384314L90.60730833333334,130.15648469687764L90.66699947916666,131.7148533925473L90.70550989583333,130.27306280815318L90.74594583333334,132.0038978962905L90.911540625,133.30704813185235L91.01744427083334,132.09897307212668L91.812684375,128.2784318734928L91.94169427083332,127.29912625605651L92.02834270833334,126.12147558120382L92.05337447916668,128.9153696526146L92.18623541666666,131.4617690670459L92.43125794270833,130.00796515693168L92.49431875,131.09901872086164L93.0315390625,131.06362407485244L93.05512669270833,131.18337217429195L93.21638906250001,131.6060905555552L93.87299166666666,131.28439683418102L93.92931315104167,132.74196827181922L94.17722395833333,132.0520330302197L94.33896770833334,132.4998342577576L94.50263697916667,133.1363486056725L95.02060208333333,129.92245632239798L95.09377187499999,124.14712741947834L95.45191875,125.39118604200263L95.70271783854167,122.8644518420715L96.08348958333333,125.26058239997903L96.29529687499999,126.05272884077073L96.77667708333334,125.53482853366731L96.9076125,124.15357695915357L97.15215364583332,119.95333044085606L97.374069921875,116.56772451760344L97.58539583333332,119.20213411004572L97.62438763020833,119.02392591026438L97.72018229166666,122.466300650448L97.86267083333334,123.21646335613573L98.25547708333335,122.76475632695472L98.41529531249999,122.12594733757533L98.88127135416667,122.0332751065089L99.03194335937499,121.48770209512004L99.27070794270834,110.47298299700273L99.28948177083333,111.5068027607957L99.355430859375,114.39123968608773L99.47096210937501,113.47544590310906L99.56098020833333,114.73748325839085L99.6745859375,113.65520380600924L99.69961770833332,116.3080468080079L99.83103450520834,119.81756783039454L100.10830950520833,120.3931167509517L100.23876354166667,122.40270958323349L100.32396783854166,125.26477366006083L100.33744648437501,127.84724458180187L100.43757356770834,127.73700580532888L100.44671979166667,129.9213402031424L100.47993502604167,128.07419247072542L100.72014374999999,130.7742344793333L101.37096979166668,132.52065701741947L101.66557447916666,132.18744036949388L102.151287109375,132.58546756020772L102.18402096354166,129.88648045634204L102.34961575520833,132.39094387156698L102.769379296875,134.62502500964206L103.02354804687499,136.65330045809773L103.40480117187501,134.9127745908727L103.89773450520833,133.1521350202603L104.040223046875,133.2285081631005L104.10569075520833,133.6002469187433L104.15190325520832,132.35850859376515L104.629432421875,132.6794054743539L104.64916901041667,130.13309593714743L104.97987721354167,132.0310531120616L105.16280169270833,130.97837007223717L105.247524609375,127.43936718429002L105.43670703125,127.47347608547884L105.80640703125,118.08151736104182L106.08705169270834,119.24706620033272L106.28971276041668,119.37492368281909L106.44567994791667,121.77925860567905L106.916951171875,123.51136880743842L107.08639700520833,125.77547995961126L107.10998463541668,122.19601406911335L107.19037513020834,114.62717975967516L107.21396276041666,113.61189626108022L107.26017526041666,113.51611662996456L107.42191901041666,111.44824944606077L107.44502526041667,112.90099062402994L108.19164596354167,114.83719879769151L108.89494244791666,117.83554431553172L109.42060963541665,120.98354338606137L109.46297109375,123.09845745189568L109.68199908854167,123.59756774023938L109.99200794270834,125.20340191050559L110.00741210937501,118.1520820878577L110.085395703125,114.99685746893788L110.16819309895834,116.12975010713708L110.30057265625,119.08804035564593L110.41610390625,117.62227492932593L110.47338815104166,118.34189109518738L111.01445950520834,117.96474028072092L111.49247005208333,118.43724223011299L111.913677734375,118.79071393584871L112.25064388020833,120.21468219924971L112.42875455729167,122.54283570354015L112.46630221354167,122.49941306440924L113.18115182291668,122.78285814449285L113.24854505208333,124.25300430436788L113.49308619791665,127.24277440421562L113.56240494791666,123.28452891569836L113.59898984375,122.63483757399148L113.66493893229166,123.19318195130246L114.25174140624999,124.79923701866431L114.58100546875,118.45730790270208L114.58100546875,120.4779500475536L114.65610078125,115.76411916522365L114.69461119791666,116.30038330564987L114.82939765625,115.64989586730789L114.88908880208334,117.06608839457135L115.13748098958332,118.2382016956865L115.38009661458332,117.47351687469798L115.535582421875,116.642206327351L115.88843411458333,118.44077033388773L115.89421067708332,115.21778528880239L116.1377890625,111.93126533397447L116.83338346354168,115.3759748528647L117.41922317708332,118.76212101437335L117.87123919270833,113.4203676524768L117.91552617187499,112.1346303915959L118.35358216145833,114.3766231407019L118.51003072916666,116.85810696733716L119.15700572916667,116.92160746805773L119.2340265625,110.13432832692045L119.72840403645834,113.33579765591332L119.90699609375001,109.8124795265358L119.96476171875,110.1224993278301L120.644951953125,111.79276076631282L120.70127343749999,115.94565690575016L120.99972916666667,117.02384101542373L121.18698606770833,120.42990175457265L121.211055078125,109.9167387525218L121.54465156250001,111.19098587523604L121.82337070312501,106.8540491910938L122.36829309895833,111.12478883982082L122.48960091145833,111.29807113532925L123.71326940104166,106.98791740453115L123.96551263020832,106.1078589262268L124.04253346354167,106.99881549368159L124.108001171875,105.83642402610054L124.55664752604167,108.89407877531613L124.58360481770833,110.59934500993107L124.75593893229166,107.54221565004015L124.94656549479166,110.36024529351488L126.09513867187499,111.07295804041408L126.17264088541666,114.43164395261537L126.24436653645833,110.51977190742929L126.83935247395833,114.9746998519278L127.20616419270833,118.94304868890212L127.39967903645834,119.85468369812888L127.92149518229166,121.7892224275543L128.05146783854167,116.81483494778826L128.15063216145833,116.04476285978654L128.18144049479167,114.40516135116829L128.59735299479166,113.45046581465377L129.29824257812498,114.74310966027495L129.49945950520834,117.70506203398371L129.73918684895833,119.24485068024119L130.22489947916668,120.28275318788678L130.55849596354167,118.76336549643963L130.647069921875,119.92971930105622L131.21221028645832,119.61822906179086L131.753281640625,123.30948978868784L132.05029322916667,119.27746842212376L132.12346302083333,118.4090303324915L132.9129265625,120.50870387252755L132.94373489583333,120.95402762943704L133.2595203125,121.39245381685512L133.78903854166666,119.46858324478154L134.32866575520833,120.31551838531081L134.41723971354168,123.21165436730101L134.43601354166665,123.0362059688122L134.702216796875,124.40070858292465L134.79079075520832,117.39337645185499L134.90680338541668,120.07631887853492L135.34293385416666,120.7407930477618L135.603360546875,118.00178672681406L136.45492213541667,116.8954824548784L137.14907239583331,117.88260324694936L137.50625651041668,120.71036214260661L137.82974401041665,118.55354464019898L138.05310442708333,118.74867588597634L138.47383072916665,113.70214906705976L138.54122395833335,115.19691902120749L138.60187786458334,109.31577644520313L138.99372135416667,110.02272970181141L139.08614635416666,112.3696280675442L139.24307630208332,112.1210772508688L139.36438411458332,105.13880194266314L139.56271276041667,104.28167142865583L139.58148658854168,108.64704366443327L139.83806223958334,109.52442584029288L139.85442916666668,106.27009700637454L139.85731744791667,109.86000164436918L139.87849817708332,112.53183132206618L140.081640625,114.70979120277337L140.42582747395835,112.81545310457133L140.60056848958334,111.10533810271627L140.75220325520834,112.4621249825997L140.97941471354167,114.21017401703654L141.096871484375,109.01936100334446L141.200849609375,113.39159539925704L141.34718919270833,114.94668947393038L141.87333776041666,115.31461394847338L141.97490898437502,111.46075000180164L142.31572617187499,113.42157348108316L142.471693359375,114.4314165645558L142.52994036458333,118.57535031365455L142.69216549479168,119.92119812591358L142.79181119791667,118.12612815650347L142.884717578125,115.85127458247743L142.89097552083334,107.326031039524L142.94440872395833,104.65522972112734L143.225534765625,105.15588988083944L143.34347291666666,108.1045117415638L143.55142916666665,109.5986951592903L143.71702395833333,109.45306482453303L144.13438059895833,111.78384165671525L144.33078372395832,113.22226071578072L144.82275429687502,110.4679974883577L144.85163710937502,112.33869976651336L144.89929375,113.04314091240953L145.17705013020833,113.19070228066617L145.61029231770834,115.09720009656847L146.879210546875,115.95876841421543L146.97356106770832,111.53783778209451L147.168038671875,114.79773692026619L147.19740286458332,110.51568705039979L147.300899609375,111.63696528340637L147.70766588541667,102.68643781828703L148.11009973958335,92.51115352243134L148.13128046875002,95.50367782833585L148.291580078125,98.55105417572355L148.77344166666666,96.49676616801337L149.14699270833333,97.54571982520439L149.33665651041665,100.36508160878893L149.8459567708333,98.70119990859229L150.15355872395833,98.66267085630118L150.47175104166666,100.57675950159481L150.78512955729167,101.55248605332186L151.41477486979167,102.49572599037305L151.9635483072917,106.5094675712764L152.052122265625,108.63116052570214L152.98118606770834,112.20688255535877L152.985037109375,107.89886956782271L154.00411901041667,109.6046717352345L154.111466796875,113.62298771229727L154.741112109375,111.39105343885917L155.45981276041667,107.26645171616134L156.257459765625,105.38748998986878L156.33062955729164,95.22014105413655L156.6637446614583,100.31724457630024L157.09313580729167,93.87060270339809L157.28424375,92.40465372719781L157.82050130208333,96.74608535227661L158.42174518229166,99.36554726895878L158.97340690104167,88.60244043191109L159.30507786458335,87.5173733317187L159.53421484375,78.00880764189066L159.62182604166668,75.73969985188927L159.92076315104165,80.19953871534148L159.98478671875,83.77658287819787L160.02474127604168,88.43978591607554L160.19274296875,87.17379721829455L160.49119869791664,90.10887718898661L161.07078046875,88.90075207384774L161.36008997395834,90.08951305954768L161.87661093749998,85.33575473565968L162.09563893229168,88.65491106043908L162.92698255208333,82.80286842685169L163.46035182291666,84.89141801306889L163.50848984375,84.69460035421804L163.83245872395835,85.71875765402905L164.17472005208333,79.19215291246316L165.39790716145833,86.43899233472614L166.36018619791665,86.33364233026852L166.5450361979167,88.28589561349922L166.60328320312502,81.05964249180217L166.92917760416665,72.98793673483166L167.02160260416665,68.58680185679195L167.35568046875,61.47272121112962L167.712383203125,65.14833698924208L167.73115703124998,63.8138738257349L167.91263736979167,58.22807136109685L168.40557070312502,57.949110414312685L168.47874049479168,63.96029347487394L168.6347076822917,65.55902700580452L168.7738265625,61.644155001746164L168.88887643229168,56.867660207193445L169.519003125,61.88857492162869L169.59698671875,62.24951674517847L169.6239440104167,68.9175516084206L169.7028903645833,75.03301586272302L170.51449739583333,71.59578702480832L170.9342609375,72.19782537943419L171.24426979166668,71.4880316678957L172.25950065104166,64.61008002476558L172.37358776041668,59.175667897422194L172.55554947916667,65.28733178381079L173.03211588541666,61.49959471305134L173.1582375,62.211455566730685L173.27376875000002,70.02858876533229L173.37678411458333,74.81554826065852L173.88993541666667,70.26379795563315L174.10511236979167,65.725384378498L174.14939934895833,69.64511900950974L174.23412226562502,71.4309885054593L174.2846671875,72.63168194603438L175.19014335937499,66.32860597000341L175.21180546875001,65.02496651585862L175.25031588541665,69.89840143068454L175.84241354166667,72.11058798078682L175.87996119791666,76.31788979228291L176.31416614583335,84.27027668889176L176.71660000000003,80.3258522942613L176.751259375,84.96592862853505L176.81817122395833,88.11794865159018L177.46707174479167,77.42964751506888L177.66925143229167,79.94996679655704L177.81799791666668,83.59908585446956L177.98022304687498,83.34301034272534L178.01440104166664,79.29952346195068L178.26134908854166,70.09435994105081L178.52514544270832,71.22793588972249L178.64934153645834,75.32319765824978L178.86885091145834,69.04665677037671L179.41377330729168,72.79452874266707L179.43639817708333,76.52732799283996L179.74400013020832,68.36595369048202L180.06411796875003,71.07249063178094L180.65814114583333,71.14800354120361L180.87716914062503,69.81731243446427L180.87813190104166,76.31802938352759L181.16166484374997,80.51042177640151L181.17706901041666,86.81083702682659L181.20113802083333,81.32492796098474L181.27719609375,85.68551969961804L181.41775911458333,89.45182495073945L182.47872109374998,84.65023569241534L183.04049179687502,88.87257880644017L183.0477125,90.97824878570935L183.26914739583333,82.85246719077433L183.335096484375,83.76202496499413L183.87039127604166,88.67733996677117L184.36476875,77.79461220539011L184.36813841145832,83.68879565542427L184.43360611979168,89.55861841093437L184.45430546875002,80.91673750467758L184.9491643229167,84.71633512865219L185.02233411458334,82.65137357679107L185.15808333333334,81.93948796069463L185.541743359375,81.81425132976412L186.03804635416665,81.0130956323235L186.333132421875,81.73645189814275L186.34372278645833,84.05811450064525L186.84002578124998,82.04419792168558L187.41431236979167,77.88169462648746L188.01940729166665,69.42524885907353L188.09017018229167,67.13870730848778L188.13349440104167,71.37042299717801L188.14889856770833,72.49874036445796L188.55181380208336,74.99056678133691L188.71403893229166,74.74029449790093L188.74629140625,80.67300198511354L189.79088645833332,86.39263758203938L190.708878515625,81.57509731793166L191.049695703125,83.36620873086673L191.31301067708333,86.60927925223916L192.245444140625,91.31870887208765L192.28491731770833,90.52378005072471L192.34316432291666,87.91169965099337L193.34347239583334,92.8094368241116L193.57549765624998,97.21826215918009L194.67689557291666,92.76148839881739L195.20352552083335,90.63926552051679L195.226150390625,79.97227822183869L196.22260742187498,83.75441665359436L196.39975533854167,84.23002339188815L196.59134466145832,83.46302371813235L197.06454140625,85.38951313598088L197.30234322916667,87.56298523366542L197.530998828125,89.37462070147095L197.73943645833336,88.47264106568333L198.14957239583333,94.53155255561227L198.15294205729165,94.10464205657625L198.75803697916666,95.88785352674425L199.10559348958333,91.2903522358485L199.1816515625,93.81756796073611L199.51091562500002,97.7469667426689L199.56242330729165,100.7402330894203L199.92875364583332,102.31504394830553L200.02551106770835,94.47416873577033L200.80871666666664,91.26324667212428L200.98442044270834,96.40619875044796L201.93899739583335,99.11964342840389L202.45311145833335,101.03048104659533L202.53879713541667,98.5242805974922L203.89147552083335,89.24849787216014L204.21785130208335,93.9618627888508L206.13567005208333,94.07063262534159L206.48611484375002,99.7526920873405L206.519330078125,89.28431100810086L206.65411653645833,90.15104188800645L207.12875742187498,80.02004705062404L207.23610520833333,85.98451757352449L207.42191796875,85.20817355432011L207.47390703125,85.51826825485735L207.57307135416667,91.35917829346157L207.58799414062497,96.72299657332881L207.81809388020832,99.8525958670929L208.284069921875,102.42798699317713L209.462488671875,93.71358281262495L209.517366015625,90.98947014307345L210.06228841145833,88.02937583428812L210.19033554687502,80.81641113876546L210.69385924479167,86.72658326017182L210.74632968749998,84.84545924700976L210.86715611979167,77.8695232119461L211.38271432291666,74.3126918027832L211.70572044270833,73.8846644978933L212.94383033854166,70.26351626737552L212.98089661458334,75.33046609986371L213.19318528645832,66.90680672465184L214.904010546875,63.65720167890674L215.0094328125,68.52319588625184L215.22027734374998,67.17602669380031L216.01648020833335,64.25632886783738L216.02129401041668,54.89686603193476L216.21432747395832,61.42189511588615L216.21962265625,66.76889361477339L216.30242005208333,62.40718151881006L217.31331848958334,64.14295529502965L217.64884049479167,69.13993505696955L217.67435364583335,63.70239712184035L217.68927643229168,69.34417750860263L220.12409752604165,71.63103828474208L220.22085494791668,65.13453626152132L220.24011015625,70.65364174757124L220.51738515625001,72.50588671823871L220.74941041666668,76.01454851735656L220.94966458333334,75.55053366390082L221.0960041666667,74.66013751228236L221.17158085937498,69.36682370667735L221.26015481770833,61.34044236417455L221.34391497395833,59.33555678587144L221.460408984375,56.05389149785382L221.88065390625,60.25509057820149L222.02699348958333,54.193340391286426L222.49778333333333,45.35353664501558L222.54977239583334,47.505353251954006L222.693705078125,49.70996888820101L223.30457656250002,45.091773332721665L223.73396770833335,51.16889055858147L224.3178819010417,52.30342624360134L224.62115143229167,57.66232819474169L225.02214114583333,60.94744166516232L225.36536523437502,64.03107618295007L225.60990638020834,59.753049623504054L226.18611848958335,68.84557947431499L228.11452760416668,66.38191016407943L228.96753333333334,57.192463231422806L230.08240989583334,50.82186115100071L230.3635359375,55.1575623941326L230.54790455729167,48.52517278457996L230.9315645833333,43.325263149943L232.16678619791668,39.22619447655028L232.38629557291665,35.07617210253692L233.0323078125,32.12918199383465L233.38515950520832,26.86980932667774L233.58011848958333,25.108261910078845L235.17348697916668,21.60855045684176L235.33667486979166,18.352340706734182L236.84580182291666,15.644843390044707L237.810969140625,12.257285764463537L238.54603671875,12.645135117427243L238.57491953125,15.203845274563253L239.09047773437499,15.336771210752145L239.82410117187501,13.228145352272374L240.71032213541667,12.066417915600262L241.63072109375,23.30529916411813L241.67308255208334,23.54002515840633L241.81508971354168,35.27376711394229L242.3561610677083,40.79533972741602L242.70131067708334,41.71547090748425L242.73211901041665,50.223711977926875L242.99398984375,51.1945611336942L243.97504270833335,46.82065137513881L245.80813854166666,48.62331946197352L246.71939127604168,51.84651526527124L246.78485898437498,58.32681128145485L247.81693815104168,59.68686300936627L248.64683763020832,52.24645491360766L249.23027044270833,60.92149188467906L249.5763828125,58.669430441184055L249.72994309895833,59.414043089565006L250.05391197916668,57.73011271582244L250.84096861979168,51.374785645567435L251.59769830729167,45.27465032469633L251.998206640625,43.81745994349401L252.51424622395834,48.84815181812985L252.75445494791666,54.85640220680138L252.85121236979165,50.14370433148033L253.479894921875,44.28166517080435L253.62045794270833,52.14751785170811L254.01759661458334,47.323406914870475L254.22555286458334,58.02085046670702L254.25732395833333,52.15388715742978L254.4055890625,53.6922306825371L254.80513463541666,52.48872413233867L255.55753190104167,56.203501621448545L257.1369403645833,50.38736514616006L257.2707640625,44.480584780558615L258.531498828125,54.3032604856408L258.97533138020833,50.60984465713623L259.24971809895834,46.59832820761358L259.34647552083334,43.74825492914402L259.36765625,53.48224349106553L259.42927291666666,44.64564626986649L260.8060203125,45.64909227825581L261.7861104166667,48.43435507593736L261.88142369791666,50.80970660558618L264.0832567708333,43.85842556738638L264.37930559895835,38.489786837552046L264.44477330729165,41.61781354361727L264.579559765625,43.93804987627279" style="fill: none;" fill="none"></path></g></g></g></g><g opacity="0.2"><g><g><g><path stroke="rgb(255, 112, 67)" stroke-width="2px" d="M24.161435416666666,145.55331119624051L24.276966666666667,166.75743390863593L24.28466875,152.96915499947286L24.409827604166665,164.8215424450961L24.513805729166666,171.80924486680465L24.800708333333333,154.27483187588777L24.831516666666666,156.1689744082364L25.106866145833333,161.5968694860285L25.12997239583333,169.50456145893446L25.216620833333334,159.73272891478106L25.299418229166665,165.83479572642932L25.451534375,166.24423786510118L25.4630875,167.77911493127996L25.501597916666668,159.97435741424562L25.940616666666664,157.24074616865678L26.121615625,162.927449018305L26.181306770833334,160.3370464585044L26.454730729166666,157.36780219511553L26.56833645833333,155.2660313909704L26.633804166666664,159.64918655048717L26.668463541666668,149.79094165238467L26.672314583333332,162.77610415545377L26.880270833333334,163.24341872822157L26.934185416666665,158.71342797712848L26.999653125,165.76546481739393L27.043940104166666,157.74765209718183L27.238417708333333,159.5941745151173L27.273077083333334,162.45283766659824L27.475256770833333,161.17184860923072L27.500288541666666,166.108841566606L27.56768177083333,168.63432504480537L27.573458333333335,160.91489610671997L27.640851562499996,159.94031498648903L27.667808854166665,155.57984506000173L27.789116666666665,162.1723221692172L28.278198958333334,160.8997040748596L28.3918046875,160.30490840565074L28.399506770833334,150.61369337602096L28.4264640625,150.7535107092424L28.534293229166664,154.36646821715613L28.578580208333335,155.66857189698652L28.788461979166666,158.34281145442617L28.803866145833336,169.58152828216552L28.929025,160.31115708784623L28.97716302083333,153.74577320272272L29.22940625,163.84897311817517L29.327607812500002,169.9070121938532L29.679978125,160.76522390192204L29.92644479166667,163.9184267911044L29.9399234375,157.54682494510303L29.999614583333333,160.77479181289672L30.020795312500002,155.7465699369257L30.230677083333333,151.96963746330954L30.263410937499998,154.9921259619973L30.359686979166668,149.1524194023826L30.411676041666666,161.9673509684476L30.45596302083333,166.29010245583274L30.588823958333332,158.26061182022096L30.6388875,151.6666101368991L30.698578645833333,161.4603007923473L30.835290625,164.00189703161067L30.973928125,159.74691581726074L31.043246875,156.87862183830956L31.110640104166666,159.5727767684243L31.135671875000003,155.16743817329407L31.2107671875,161.09105769070712L31.368659895833336,163.7902029731057L31.593945833333333,158.3894141630693L31.68637083333333,150.6521380402825L31.7191046875,156.55745461203836L31.790348958333333,148.4861245068637L31.7999765625,159.5429451422258L31.809604166666666,162.10274419784545L32.013709375,159.51425368569113L32.217814583333336,160.85507633035834L32.298686458333336,166.4328032060103L32.32949479166667,157.54724924781107L32.39881354166667,154.2805281205611L32.41806875,157.83535462292758L32.452728125,165.49509268673984L32.6202484375,155.31223434968427L32.69919479166666,162.96238301884046L32.743481770833334,156.23240267580206L32.75503489583333,157.19817932302303L32.99765052083333,169.08038151480935L33.149766666666665,154.15963330702348L33.34231875,157.92624900991265L33.37312708333334,165.1089726187966L33.38660572916667,164.4599122394215L33.41933958333333,166.0848688472401L33.8679859375,152.65493007139727L33.91804947916667,164.17416853471235L33.979666145833335,158.1245817531239L34.070165625,165.6466661973433L34.09712291666666,160.3412572600625L34.100973958333334,155.39847828691657L34.185696875000005,151.8163606036793L34.21650520833333,151.5863954414021L34.42061041666667,157.34125296852807L34.47645052083333,133.34559670361605L34.643970833333334,147.9921816782518L34.81149114583334,164.50556659698486L34.81149114583334,159.2843537417325L34.823044270833336,146.27877905585547L35.0232984375,162.76273056377062L35.0926171875,163.85345706939697L35.109946875,161.5088600505482L35.12920208333333,160.28002723347058L35.248584375,156.91153637279163L35.25050989583333,156.9076930956407L35.29864791666667,155.39109096960587L35.310201041666666,159.42107282118363L35.3352328125,150.19759436520664L35.47001927083333,161.28193099282004L35.52971041666667,157.0748714316975L35.552816666666665,157.22924933000044L36.172834374999994,151.36725575273687L36.421226562499996,157.2977201245048L36.48669427083333,155.2751550501043L36.6465125,161.43059806823732L37.145222395833336,152.56795722354542L37.47063541666667,152.86529751257464L37.67666614583333,156.46799732988532L37.81145260416667,154.27192467342724L37.82108020833333,155.15926516706293L38.113759375,159.62600872733375L38.402587499999996,139.66270442442462L38.56625677083333,161.09637029821224L38.728000520833334,153.1486480886286L38.79346822916667,153.2302039796656L38.799244791666666,162.3821717002175L38.8011703125,155.06048089807683L39.070743229166666,156.55117600614375L39.438517708333336,159.99077708504416L39.59448489583333,158.34699156501077L39.692686458333334,159.58015180934558L39.79281354166667,154.00507509925148L39.869834374999996,163.4620612231168L39.939153125,155.19211141412907L40.51488385416667,162.50387368635697L40.59575572916667,136.4099499919198L40.59960677083333,154.54663113680752L40.78253125,157.70586326772516L40.846073437499996,155.0850367459384L41.119497395833335,152.94067684520374L41.13875260416666,152.30420513586566L41.17918854166667,155.3640100219033L41.41987864583333,154.80143527117642L41.51422916666667,160.41322759281508L41.54118645833333,154.59669041633606L41.5450375,162.60988951596346L41.58932447916667,158.95149018547752L41.75299375,159.2990823398937L42.082257812499996,154.10373813889242L42.2208953125,158.3510688608343L42.367234895833334,164.3039744723927L42.54053177083333,154.96881233128633L42.586744270833336,159.29766288237138L42.609850520833334,157.8479916312478L42.873646875,152.62718773321672L42.9025296875,156.35211435231295L42.95066770833333,160.1662864858454L43.303038020833334,155.3874011473222L43.3531015625,141.72323500026357L43.370431249999996,154.271445126967L43.399314062500004,158.2928358078003L43.50521770833333,141.54896244569258L43.536026041666666,148.976395927776L43.551430208333336,137.7063244342804L43.66888697916667,164.49849539670078L43.684291145833335,157.96520506251943L43.88261979166667,158.04762260263615L43.94616197916667,150.6776955647902L43.95001302083333,144.0005934671922L44.362074479166665,156.32313670245085L44.510339583333334,150.9562119288878L44.795316666666665,157.05252993757074L44.89544375,152.55667598897762L44.99749635416667,155.6079741044478L45.25166510416667,142.0679283922369L45.48850416666667,138.42043279734526L45.679130729166666,133.9432896007191L45.692609375,162.43644868677313L45.72726874999999,148.8976850899783L45.90441666666667,152.1590115113692L46.083490104166664,161.51238490884955L46.1142984375,161.4890168016607L46.270265625,137.16311722235247L46.32610572916666,155.42142285867172L46.333807812500005,160.45030689239502L46.522508854166674,150.88013936389575L46.587976562499996,145.33828333074396L46.805560416666665,147.97266375368292L47.144452083333334,161.61907747442072L47.18103697916666,162.32593202590942L47.20414322916667,148.01347661018372L47.587321874999994,163.3754666415128L47.598875,156.07194489565762L47.864596875000004,156.50744290351867L48.003234375,159.42854300412264L48.328647395833336,155.4346499009566L48.53275260416667,165.00322073156184L49.0025796875,144.76609539985657L49.077675,156.59090930765325L49.14506822916666,160.94810834364458L49.46855572916667,143.463865887035L49.5860125,145.0497505838221L49.95763802083333,142.93895893530413L49.965340104166664,138.91516591852363L50.13671145833333,127.31216104680841L50.33311458333333,133.98047248233448L50.714367708333334,153.6010698665272L50.73362291666667,161.36614088578656L50.8048671875,156.89315938516097L51.028227604166666,139.08006775162437L51.0474828125,157.52360262003813L51.32090677083333,151.96020996353843L51.47879947916667,143.23966602412136L51.561596875000006,158.14023108048872L51.58085208333333,155.07800544391978L51.7637765625,155.37864040894942L51.76570208333334,154.7445073517886L51.8099890625,136.22654073455118L51.99291354166667,157.8820816300132L52.09111510416667,153.84162188009782L52.22975260416667,147.75926404432818L52.25093333333333,157.050411493128L52.283667187499994,150.3850625038147L52.41845364583333,167.5572805751454L52.520506250000004,157.50794485265558L52.55131458333334,153.35405663576992L52.872876562500004,146.5132128238678L53.086609374999995,165.6360870187933L53.14052395833333,154.0195412895896L53.402394791666666,143.9049151247198L53.50444739583333,151.74161273782903L53.57376614583333,127.55928476507013L53.608425520833336,148.19823013218965L53.69507395833333,140.34727579463612L54.001231770833336,134.75340623422102L54.122539583333335,149.28629764860327L54.15719895833333,153.46793472550132L54.272730208333336,153.255728895014L54.3978890625,153.95478333559905L54.45758020833333,146.29523478854787L54.596217708333334,146.28587711074135L55.094927604166664,154.53769162351435L55.11033177083334,157.23052914359351L55.20853333333333,140.22836361798372L55.505063541666665,143.96626638065686L55.56282916666667,141.63046309297735L55.67836041666666,142.33393703373994L55.974890625,142.1106709436937L56.026879687500006,152.81448783874512L56.09812395833333,155.98489915674384L56.17129375,156.2816102808172L56.18669791666667,163.03828333074395L56.24831458333334,152.007258458571L56.402356250000004,148.82297328602186L56.42161145833333,152.22543751976707L56.47937708333333,165.93585803292015L57.024299479166665,151.62717453783208L57.07051197916667,151.5435055732727L57.149458333333335,137.90963678793474L57.530711458333336,156.164758235758L57.704008333333334,122.49977497621015L57.86190104166667,149.174171629819L57.97165572916666,147.02424592104825L58.479993229166666,156.11368845592847L58.53005677083333,151.00823543071746L58.76882135416667,163.58527320515026L59.12119166666667,156.35976944836702L59.290637499999995,143.50859951539474L59.58331666666667,158.6363813573664L59.63915677083334,157.1082862290469L59.74506041666667,152.54023790359497L59.797049479166674,149.95617993528194L59.808602604166666,156.60321945710615L59.89910208333333,148.21679817113008L60.035814062499995,151.79614522673864L60.1397921875,153.17658991813659L60.37085468750001,141.60905537171797L60.3824078125,147.19263424873353L60.42284375,156.3454551783475L60.476758333333336,144.82753719416533L60.4921625,146.8477636163885L60.573034375,154.7083173231645L60.75403333333333,140.38631087649952L60.85801145833333,156.73256119381298L61.30473229166666,167.29279190410267L61.51268854166666,150.42308861992575L61.62244322916667,156.84034252166748L61.709091666666666,152.9897724281658L61.77070833333334,157.48363529985602L61.8034421875,136.54716166149487L62.12500416666666,143.06854313070124L62.211652604166666,119.08365939747202L62.3117796875,156.2654230941426L62.35029010416667,152.50105320323598L62.40805572916667,154.87072014375167L62.60830989583333,148.4052883191542L62.997265104166665,157.6973695408214L63.174413020833335,134.26051840782165L63.5017515625,147.94211319143122L63.70008020833333,144.74476363875647L63.7674734375,131.5075802889737L63.84256875,154.3851459763267L63.93306822916667,155.44600863023237L64.59544739583333,149.19733027111403L64.62625572916667,132.75432205633683L64.80918020833333,143.64176688194274L64.8419140625,139.99320707754654L65.1769546875,135.92907537980514L65.23664583333333,145.7462714845484L65.46000625,124.30845388932661L65.5119953125,133.59923227917065L65.5466546875,131.39043591239235L65.67566458333333,149.52067655650052L65.70262187499999,155.29514868476173L65.748834375,154.4973713571375L66.29568229166667,158.50641736117277L66.32263958333334,152.48742180737582L66.49593645833333,155.41964738585733L66.55370208333333,145.7467065290971L66.9099234375,106.68264317946L67.07359270833334,140.11608913161535L67.14291145833333,123.09730214205655L67.3258359375,143.93254850994458L67.3258359375,146.23278786485847L67.3836015625,151.84522009329362L67.65124895833333,143.66613398031754L67.67628072916666,143.53101773695514L68.31362812500001,159.49944068735297L68.42145729166667,155.95206211696973L68.43878697916666,116.78446967385032L68.57164791666666,139.66201541207056L68.79693385416667,156.60129590034484L68.8392953125,154.3774847420779L68.9432734375,134.0481437769803L68.95675208333333,129.50435896786777L68.97600729166666,144.36835035844283L69.10886822916667,153.31504073576494L69.14160208333334,139.6430629686876L69.29756927083334,152.4013144449754L69.399621875,141.68046636147932L69.52478072916666,154.54088118293066L69.5671421875,154.6191792271354L69.61720572916667,156.2491990782998L69.89255520833333,126.69056295048105L69.95224635416668,132.16519347537647L70.06585208333334,143.40471210479737L70.97854895833333,145.52945893894542L71.01320833333334,152.83946338566867L71.19998385416666,146.51742822907187L71.51191822916667,150.3252446456389L71.5773859375,138.791417611729L71.79882083333334,138.12219709916548L71.90665,152.19444424022328L72.15311666666666,157.72068086970935L72.17429739583334,157.61083097024397L72.2936796875,143.95408436601812L72.334115625,155.14105697978624L72.5131890625,145.79032760966908L72.95413333333333,129.75975083437834L72.9984203125,162.46893201307816L73.03307968749999,146.90798084085637L73.11587708333334,153.0693970896981L73.26799322916666,148.90322174158965L73.535640625,132.83329453468323L73.6916078125,140.51804574186153L73.72241614583334,138.62816925482318L73.87260677083333,153.21038144718517L73.97658489583334,141.36227155598726L74.4656671875,140.3567217089913L74.75064427083333,156.9171451481906L74.94704739583332,150.02806740240618L74.96052604166667,146.34464572126214L75.21854583333332,140.76901043545115L75.39569374999999,128.30306823036886L75.81930833333334,152.83210138841108L76.34882656250001,151.71726251948962L76.37963489583333,122.9412139892578L76.40466666666667,148.3792063626376L76.57411250000001,101.03314392783425L76.7416328125,106.8562098416415L76.8802703125,129.90997087305243L77.01313125,159.45080623626708L77.19027916666667,106.41978113001043L77.31158697916666,122.07582061073995L77.77371197916666,137.2156187360937L77.90079635416667,91.52314682006836L77.95278541666666,127.30339417024092L78.74417447916667,145.00585481903772L78.76535520833333,155.76211338043214L78.92324791666667,126.91716514934193L78.95020520833334,142.46264116547323L79.30835208333333,101.046669439836L79.39114947916667,155.9891713402488L79.43543645833333,87.13318977355958L79.6299140625,126.06206245422364L79.889859375,144.75582006194372L79.89371041666666,136.41089680845087L80.20179375,142.3424476406791L80.2768890625,146.79381348870018L80.40012239583334,124.575044892051L80.48291979166666,126.20960010181774L80.58112135416665,78.35260661732066L80.7390140625,141.80109569809656L81.0105125,150.33132951476358L81.26083020833335,130.25636761405252L81.33255585937499,148.61573095321654L81.334,150.98120397220958L81.49381822916666,148.82762718850915L81.55928593750001,122.51415523182261L81.75809596354166,158.02186980680986L81.8481140625,129.27147893038662L81.89625208333334,139.32637278816915L81.96605221354166,152.00184610540217L82.0271875,84.45241917696868L82.131165625,145.00970116528597L82.40458958333333,157.92218092138117L82.43539791666667,138.651785958897L82.708821875,143.91198862682688L82.73963020833332,117.67506341067228L82.87249114583334,135.5554427016865L82.91148294270833,141.76283786513588L82.92640572916666,140.97001943154768L83.18875794270834,140.64984045462174L83.240265625,142.05373151519083L83.32306302083333,144.6370375546542L83.3615734375,155.45200641371986L83.84873020833334,143.5470729524439L83.99121875,144.79592165513472L84.05090989583334,157.11405996842817L84.19147291666667,117.73276244076814L84.40713125,138.92181281609967L84.57465156250001,133.0552677674727L84.59198124999999,154.39318240772593L84.59246263020833,109.74675937999378L85.06758489583333,143.333885010806L85.14653125,156.41866772825068L85.45894700520833,136.12089780027216L85.828165625,133.90192891034212L86.29029062500001,137.36204767227173L86.53098072916666,119.951514192061L86.66817408854166,60.427347148548485L86.81980885416667,157.99710526032882L87.05472239583332,136.71627045978198L87.1047859375,139.0442836111242L87.241979296875,84.89040392095391L87.30504010416666,138.79427340680903L87.35365950520833,156.42344247644598L87.57894544270833,127.41290723627264L87.87306875,69.30471735867587L87.95057096354167,135.4121081829071L88.023259375,144.31248204491354L88.08487604166666,148.6997137329795L88.21003489583333,101.1824647209861L88.22351354166668,81.04582547274502L88.52196927083334,116.71030186739834L88.78191458333333,121.61918342763727L88.9648390625,145.05458748123863L89.3287625,138.93360735719855L89.6811328125,145.60868461782283L90.17599166666668,143.58362973820078L90.28574635416666,150.18304876197467L90.2934484375,144.03258727247064L90.4551921875,73.63811707930131L90.49370260416667,139.73648552461103L90.60730833333334,148.60188932418822L90.66699947916666,145.74017165357415L90.70550989583333,117.29694754860618L90.74594583333334,147.58141368952664L90.911540625,145.03540025190873L91.01744427083334,121.22629753459584L91.812684375,93.89356108578768L91.94169427083332,118.48537569912997L92.02834270833334,115.52261950752951L92.05337447916668,154.06041629531168L92.18623541666666,154.37936379692772L92.43125794270833,116.92372996590355L92.49431875,140.91850079623137L93.0315390625,130.74507226076994L93.05512669270833,132.26110506924715L93.21638906250001,135.4105559869246L93.87299166666666,128.3891533418135L93.92931315104167,145.860111210563L94.17722395833333,125.84261585582388L94.33896770833334,136.5300453055989L94.50263697916667,138.86497773690658L95.02060208333333,100.99742577292703L95.09377187499999,72.16916729320178L95.45191875,136.58771364472128L95.70271783854167,100.12384404269133L96.08348958333333,146.82575742114673L96.29529687499999,133.182046807896L96.77667708333334,120.87372576973655L96.9076125,111.72231278852983L97.15215364583332,82.15111177617852L97.374069921875,86.09727120832963L97.58539583333332,142.9118204420263L97.62438763020833,117.42005211223255L97.72018229166666,153.4476733121005L97.86267083333334,129.96792770732534L98.25547708333335,118.6993930643255L98.41529531249999,116.37666643316095L98.88127135416667,121.19922502691095L99.03194335937499,116.57754499262029L99.27070794270834,11.340511113947088L99.28948177083333,120.81118063493207L99.355430859375,140.35117201371625L99.47096210937501,105.23330185630105L99.56098020833333,126.09581945592706L99.6745859375,103.91468873457475L99.69961770833332,140.1836338259957L99.83103450520834,151.40325703187423L100.10830950520833,125.57305703596636L100.23876354166667,140.48904507376932L100.32396783854166,151.02335035150702L100.33744648437501,151.08948287747126L100.43757356770834,126.74485681707208L100.44671979166667,149.5803497834639L100.47993502604167,111.44986287897284L100.72014374999999,155.0746125568043L101.37096979166668,148.23845986019484L101.66557447916666,129.18849053816362L102.151287109375,136.16771227663213L102.18402096354166,105.59559652155096L102.34961575520833,154.93111460859126L102.769379296875,154.73175525231795L103.02354804687499,154.90777949419888L103.40480117187501,119.24804178584706L103.89773450520833,117.30637888474897L104.040223046875,133.9158664486625L104.10569075520833,136.9458957195282L104.15190325520832,121.18286366896197L104.629432421875,135.56747739965266L104.64916901041667,107.21631010228937L104.97987721354167,149.112667686289L105.16280169270833,121.50422271381724L105.247524609375,95.58834119276568L105.43670703125,127.7804561961781L105.80640703125,33.55388884110884L106.08705169270834,129.73700575395063L106.28971276041668,120.52564102519642L106.44567994791667,143.41827291141857L106.916951171875,139.100360623273L107.08639700520833,146.15248032916674L107.10998463541668,89.98082105463202L107.19037513020834,46.507670974731454L107.21396276041666,104.47434477372602L107.26017526041666,112.65409994992343L107.42191901041666,92.83744479092685L107.44502526041667,125.9756612257524L108.19164596354167,132.26307236064565L108.89494244791666,144.82065397609364L109.42060963541665,149.31553502082824L109.46297109375,142.13268404440447L109.68199908854167,128.0895603353327L109.99200794270834,139.65590944290162L110.00741210937501,54.69020368402655L110.085395703125,86.59983589865945L110.16819309895834,126.32578385092995L110.30057265625,145.7126525922255L110.41610390625,104.43038609244606L110.47338815104166,124.81843658794055L111.01445950520834,114.57038295052268L111.49247005208333,122.68975977464154L111.913677734375,121.97195928747004L112.25064388020833,133.0303965698589L112.42875455729167,143.49621724215422L112.46630221354167,122.1086093122309L113.18115182291668,125.33386386524548L113.24854505208333,137.48431974324313L113.49308619791665,154.15070530284532L113.56240494791666,87.66031951904297L113.59898984375,116.78761549862948L113.66493893229166,128.2182813471014L114.25174140624999,139.25373262492093L114.58100546875,61.379945859042074L114.58100546875,138.66372935121709L114.65610078125,73.33964122425427L114.69461119791666,121.12676056948574L114.82939765625,109.79550892223011L114.88908880208334,129.8118211399425L115.13748098958332,128.7872214057229L115.38009661458332,110.59135348580101L115.535582421875,109.16041140122846L115.88843411458333,134.62784639271823L115.89421067708332,86.21091988303445L116.1377890625,82.35258574052291L116.83338346354168,146.37836052287707L117.41922317708332,149.237436467951L117.87123919270833,65.34458739540794L117.91552617187499,100.56299504366787L118.35358216145833,134.55455788265576L118.51003072916666,139.19146140705456L119.15700572916667,117.49311197454278L119.2340265625,49.04881605668501L119.72840403645834,142.14902161684904L119.90699609375001,78.10261636213822L119.96476171875,112.91267753947866L120.644951953125,126.82511371265758L120.70127343749999,153.32172216068614L120.99972916666667,126.7274980024858L121.18698606770833,151.08444840691305L121.211055078125,15.29827173406428L121.54465156250001,122.65920997966421L121.82337070312501,67.82161903381348L122.36829309895833,149.56144567836412L122.48960091145833,112.85761179490522L123.71326940104166,68.19653382734819L123.96551263020832,98.1873326214877L124.04253346354167,115.0174246007746L124.108001171875,95.3749008178711L124.55664752604167,136.41297151825646L124.58360481770833,125.94674112146552L124.75593893229166,80.02805141102183L124.94656549479166,135.72251208478755L126.09513867187499,117.48737276250665L126.17264088541666,144.65981716242703L126.24436653645833,75.31292350075462L126.83935247395833,155.06905135241422L127.20616419270833,154.65818822167137L127.39967903645834,128.05939878116953L127.92149518229166,139.2000709923831L128.05146783854167,72.04534762989391L128.15063216145833,109.11411406777121L128.18144049479167,99.64874777360396L128.59735299479166,104.85820598602295L129.29824257812498,126.3769042708657L129.49945950520834,144.36263339736246L129.73918684895833,133.10294849655844L130.22489947916668,129.62387575669723L130.55849596354167,105.0888762734153L130.647069921875,130.42690354260532L131.21221028645832,116.81481690840289L131.753281640625,156.53083633076062L132.05029322916667,82.98927612304688L132.12346302083333,110.59308752580122L132.9129265625,139.4057657328519L132.94373489583333,124.96194144162264L133.2595203125,125.33828950361772L133.78903854166666,102.15374809611927L134.32866575520833,127.93793465007437L134.41723971354168,149.27687820521268L134.43601354166665,121.45717038241301L134.702216796875,136.68123210993681L134.79079075520832,54.327387272227895L134.90680338541668,144.2228007186543L135.34293385416666,126.72106057080356L135.603360546875,93.3507298382846L136.45492213541667,106.93874400745739L137.14907239583331,126.76669037558815L137.50625651041668,146.16019220352172L137.82974401041665,99.14218711853027L138.05310442708333,120.50485709797253L138.47383072916665,68.28340769681064L138.54122395833335,128.64984860853716L138.60187786458334,56.38549326116388L138.99372135416667,116.38530901128595L139.08614635416666,133.4917133591392L139.24307630208332,109.88411990079014L139.36438411458332,42.298324168812144L139.56271276041667,96.5674968025901L139.58148658854168,147.93539378643035L139.83806223958334,117.42086542302911L139.85442916666668,76.98113750110974L139.85731744791667,142.16914338632063L139.87849817708332,136.57829842133955L140.081640625,134.3114301291379L140.42582747395835,95.76641022075306L140.60056848958334,95.71430308602073L140.75220325520834,124.6732069015503L140.97941471354167,129.9426153269681L141.096871484375,62.30204388011587L141.200849609375,152.74170496247032L141.34718919270833,128.94253614599054L141.87333776041666,118.62593421936036L141.97490898437502,76.77597448175604L142.31572617187499,131.0689847946167L142.471693359375,123.52000431580976L142.52994036458333,155.8707540555434L142.69216549479168,132.03382843624462L142.79181119791667,101.97049843181263L142.884717578125,95.37759241624312L142.89097552083334,30.598839152943007L142.94440872395833,80.61801785555753L143.225534765625,109.6618313182484L143.34347291666666,134.6421084880829L143.55142916666665,123.04634591882879L143.71702395833333,108.14239181171764L144.13438059895833,132.76083314635537L144.33078372395832,126.16803224736994L144.82275429687502,85.67962844155052L144.85163710937502,129.1750202699141L144.89929375,119.38311122547495L145.17705013020833,114.51875459497626L145.61029231770834,132.25568043968894L146.879210546875,123.712883273038L146.97356106770832,71.74946209300649L147.168038671875,144.1368291638114L147.19740286458332,71.977238221602L147.300899609375,121.72846938046543L147.70766588541667,22.131690632213243L148.11009973958335,0.9335948597301194L148.13128046875002,122.43639658147637L148.291580078125,125.9774413022128L148.77344166666666,78.00817409862172L149.14699270833333,106.98630273992364L149.33665651041665,125.73933766104959L149.8459567708333,83.72626460682262L150.15355872395833,98.31590938568115L150.47175104166666,117.8035573092374L150.78512955729167,110.33402501886542L151.41477486979167,110.98488542383367L151.9635483072917,142.63314179940656L152.052122265625,127.726397115534L152.98118606770834,144.3883808222684L152.985037109375,69.12675267999823L154.00411901041667,124.95689124194058L154.111466796875,149.78783150586216L154.741112109375,91.30364497791636L155.45981276041667,70.14503621188076L156.257459765625,88.47683445323598L156.33062955729164,3.7140006325461643L156.6637446614583,146.19117627577347L157.09313580729167,35.85082584727894L157.28424375,79.21111294139516L157.82050130208333,135.81896997798572L158.42174518229166,122.94070451909846L158.97340690104167,-8.265521101518125L159.30507786458335,77.75176942998714L159.53421484375,-7.568283566561595L159.62182604166668,55.317729741876775L159.92076315104165,120.33808848641137L159.98478671875,115.96998034390535L160.02474127604168,130.40861325697466L160.19274296875,75.77989893826572L160.49119869791664,116.52459692521529L161.07078046875,78.02762603759766L161.36008997395834,100.78836193084716L161.87661093749998,42.55192982066762L162.09563893229168,118.52731798345391L162.92698255208333,30.13448472456499L163.46035182291666,103.68836428902365L163.50848984375,82.92324142456054L163.83245872395835,94.93617335232823L164.17472005208333,20.452710238370035L165.39790716145833,151.660547135093L166.36018619791665,85.38549229015004L166.5450361979167,105.85617516257547L166.60328320312502,16.023364396528763L166.92917760416665,0.3425849220969378L167.02160260416665,28.976587954434475L167.35568046875,-2.55400459983134L167.712383203125,98.2288789922541L167.73115703124998,51.80370535417037L167.91263736979167,7.955849179354583L168.40557070312502,55.43846189325505L168.47874049479168,118.06094101992521L168.6347076822917,79.94762878417968L168.7738265625,26.41030696522105L168.88887643229168,13.879207056218924L169.519003125,107.07680735154585L169.59698671875,65.4979931571267L169.6239440104167,128.92986537759955L169.7028903645833,130.07219415144488L170.51449739583333,40.66072748357599L170.9342609375,77.61617057106713L171.24426979166668,65.09988826404918L172.25950065104166,2.7085152365944607L172.37358776041668,10.265958751331686L172.55554947916667,120.29230676130815L173.03211588541666,27.409961076216263L173.1582375,68.61820324984464L173.27376875000002,140.38278755274686L173.37678411458333,117.89818371859465L173.88993541666667,29.298045210404826L174.10511236979167,24.879662184281784L174.14939934895833,104.92273068861527L174.23412226562502,87.50381396900525L174.2846671875,83.4379229112105L175.19014335937499,9.600922185724436L175.21180546875001,53.29221142855558L175.25031588541665,113.75931566411799L175.84241354166667,92.02026693170721L175.87996119791666,114.18360609574752L176.31416614583335,155.84175875837153L176.71660000000003,44.826032742586996L176.751259375,126.72661563699896L176.81817122395833,116.48612885908646L177.46707174479167,-18.76506271362304L177.66925143229167,102.63284032995051L177.81799791666668,116.4411573756825L177.98022304687498,81.03833073702725L178.01440104166664,42.90814153497869L178.26134908854166,-12.75211174704813L178.52514544270832,81.43011942776766L178.64934153645834,112.18055357499556L178.86885091145834,12.557788779518821L179.41377330729168,106.52537649328059L179.43639817708333,110.12252124439586L179.74400013020832,-5.086415030739528L180.06411796875003,95.43132310347123L180.65814114583333,71.82761972600763L180.87716914062503,57.84109247381038L180.87813190104166,134.8244819250974L181.16166484374997,118.24195331226696L181.17706901041666,143.51457428065214L181.20113802083333,31.951746368408195L181.27719609375,124.93084534731777L181.41775911458333,123.34857221083209L182.47872109374998,41.435932367498225L183.04049179687502,126.8736668326638L183.0477125,109.92927859913218L183.26914739583333,9.720432836359201L183.335096484375,91.94804493297231L183.87039127604166,132.9151749827645L184.36476875,-20.149937647039245L184.36813841145832,136.73644670573148L184.43360611979168,142.3870232105255L184.45430546875002,3.139809348366481L184.9491643229167,118.91271374442361L185.02233411458334,64.06671961004083L185.15808333333334,75.53251741582696L185.541743359375,80.68712165138938L186.03804635416665,73.80269435535777L186.333132421875,88.24665829051625L186.34372278645833,104.95307792316784L186.84002578124998,63.91894871104847L187.41431236979167,40.41916496970436L188.01940729166665,-6.682763047651796L188.09017018229167,46.55983335321601L188.13349440104167,109.45586419539018L188.14889856770833,82.65359666997736L188.55181380208336,97.41700453324752L188.71403893229166,72.48784394697711L188.74629140625,134.06736937002702L189.79088645833332,137.86935795437205L190.708878515625,38.217234940962356L191.049695703125,99.48621144728227L191.31301067708333,115.79691394459117L192.245444140625,133.70357545072383L192.28491731770833,83.36942065845837L192.34316432291666,64.40297605341132L193.34347239583334,136.88907138217579L193.57549765624998,136.89769017479637L194.67689557291666,52.65052455555309L195.20352552083335,71.53925961581143L195.226150390625,-16.030607466264197L196.22260742187498,117.79366253939541L196.39975533854167,88.51048403653232L196.59134466145832,76.56002665433017L197.06454140625,102.72791789661753L197.30234322916667,107.12423411282627L197.530998828125,105.67933991172096L197.73943645833336,80.35482434359464L198.14957239583333,149.06175596497275L198.15294205729165,90.26244756525213L198.75803697916666,111.9367567582564L199.10559348958333,49.91284061778675L199.1816515625,116.56250948472457L199.51091562500002,133.11155578006395L199.56242330729165,127.67963021018288L199.92875364583332,116.48834167827259L200.02551106770835,23.90629182295366L200.80871666666664,62.36494809930976L200.98442044270834,142.69276745536112L201.93899739583335,123.5406455300071L202.45311145833335,118.22801961031828L202.53879713541667,75.96847655556418L203.89147552083335,5.7664533441717L204.21785130208335,136.38214703906664L206.13567005208333,95.04956115375866L206.48611484375002,150.8912272453308L206.519330078125,-4.931118705055934L206.65411653645833,97.95161980715665L207.12875742187498,-11.158906485817637L207.23610520833333,139.66475227962843L207.42191796875,78.22107738148082L207.47390703125,88.30912055969237L207.57307135416667,143.92736864089966L207.58799414062497,144.99736109213396L207.81809388020832,128.01898951096967L208.284069921875,125.60650712793523L209.462488671875,15.283945187655354L209.517366015625,66.47245611710981L210.06228841145833,61.38852705522017L210.19033554687502,15.899728879061604L210.69385924479167,139.918132352829L210.74632968749998,67.91534312855113L210.86715611979167,15.086098896373407L211.38271432291666,42.30120912031694L211.70572044270833,70.03241875388406L212.94383033854166,37.67318219271573L212.98089661458334,120.93301459225741L213.19318528645832,-8.90612765225497L214.904010546875,34.410756267200824L215.0094328125,112.31714375235819L215.22027734374998,55.051503961736515L216.01648020833335,37.97904843417081L216.02129401041668,-29.338299491188746L216.21432747395832,120.14715687144887L216.21962265625,114.89188010475853L216.30242005208333,23.151772655140277L217.31331848958334,79.76491928100586L217.64884049479167,114.11275291442871L217.67435364583335,14.764555705677374L217.68927643229168,120.12020098946311L220.12409752604165,92.21278526999733L220.22085494791668,6.666018052534616L220.24011015625,120.32559112202038L220.51738515625001,89.17609145424582L220.74941041666668,107.59250470941717L220.94966458333334,71.37439998279918L221.0960041666667,66.64657214771617L221.17158085937498,21.726999456232235L221.26015481770833,-10.896989718350506L221.34391497395833,41.29158658114346L221.460408984375,26.518903905695126L221.88065390625,98.06588230133057L222.02699348958333,-0.3624112909490598L222.49778333333333,-34.20469707142223L222.54977239583334,66.87170271439985L222.693705078125,69.55150961442428L223.30457656250002,3.528013333407306L223.73396770833335,105.8629455913197L224.3178819010417,62.51424740878018L224.62115143229167,105.89244575500489L225.02214114583333,90.51346289894798L225.36536523437502,91.78378684303978L225.60990638020834,21.250810588489887L226.18611848958335,150.6783481316133L228.11452760416668,44.208886371959345L228.96753333333334,-25.51255916248667L230.08240989583334,-6.513557572798296L230.3635359375,94.17887358231977L230.54790455729167,-11.166333701393809L230.9315645833333,-3.473923561789777L232.16678619791668,2.334576416015629L232.38629557291665,-2.2740292635830794L233.0323078125,5.606271015514033L233.38515950520832,-20.464544677734366L233.58011848958333,9.254335160688928L235.17348697916668,-9.888852622292246L237.810969140625,-18.23073286576703L238.54603671875,16.13577929410067L238.57491953125,38.232236688787296L239.09047773437499,16.533104636452418L239.82410117187501,-5.7494873740456445L240.71032213541667,1.6108709855513172L241.63072109375,124.45523040077902L241.67308255208334,25.652559107000187L241.81508971354168,140.87744471376593L242.3561610677083,90.48949324867942L242.70131067708334,49.99665152809837L242.73211901041665,126.79788161191074L242.99398984375,59.93220353560013L243.97504270833335,7.455463548140093L245.80813854166666,64.84733224348588L246.71939127604168,80.85527749495074L246.78485898437498,116.64947542710738L247.81693815104168,71.92732856056907L248.64683763020832,-14.71721794821998L249.23027044270833,138.99682462432168L249.5763828125,38.400877449729215L249.72994309895833,66.11555692499334L250.05391197916668,42.57473935213957L250.84096861979168,-5.823157986727626L251.59769830729167,-9.626567563143642L251.998206640625,30.702746512673112L252.51424622395834,94.12437868985263L252.75445494791666,108.93065570484507L252.85121236979165,7.729423453591086L253.479894921875,-8.476687275279646L253.62045794270833,122.94019197984176L254.01759661458334,3.9064084833318446L254.22555286458334,154.29784243323587L254.25732395833333,-0.6487826260653502L254.4055890625,67.53732240850276L254.80513463541666,41.657165180553086L255.55753190104167,89.63649902343751L257.1369403645833,-1.957863131436436L257.2707640625,-8.68043850985442L258.531498828125,142.70734183138066L258.97533138020833,17.369102200594813L259.24971809895834,10.494680161909631L259.34647552083334,18.097595422918147L259.36765625,141.08814054835926L259.42927291666666,-34.88372872092508L260.8060203125,54.68010635375976L261.7861104166667,73.50172025507148L261.88142369791666,72.18787037242542L264.0832567708333,-18.703103776411584L264.37930559895835,-9.827961730957016L264.44477330729165,69.77005389820445L264.579559765625,64.82017687017267" style="fill: none;" fill="none"></path></g></g></g></g></g></g><g transform="translate(41, 177)" clip-path="url(#clip_1)"><clipPath id="clip_1"><rect width="288" height="23"></rect></clipPath><g><g><line x1="0" y1="0" x2="0" y2="5" style="visibility: inherit;" fill="rgb(0, 0, 0)" stroke="rgb(204, 204, 204)" stroke-width="1px"></line><line x1="24.069010416666664" y1="0" x2="24.069010416666664" y2="5" style="visibility: inherit;" fill="rgb(0, 0, 0)" stroke="rgb(204, 204, 204)" stroke-width="1px"></line><line x1="48.13802083333333" y1="0" x2="48.13802083333333" y2="5" style="visibility: inherit;" fill="rgb(0, 0, 0)" stroke="rgb(204, 204, 204)" stroke-width="1px"></line><line x1="72.20703125" y1="0" x2="72.20703125" y2="5" style="visibility: inherit;" fill="rgb(0, 0, 0)" stroke="rgb(204, 204, 204)" stroke-width="1px"></line><line x1="96.27604166666666" y1="0" x2="96.27604166666666" y2="5" style="visibility: inherit;" fill="rgb(0, 0, 0)" stroke="rgb(204, 204, 204)" stroke-width="1px"></line><line x1="120.34505208333334" y1="0" x2="120.34505208333334" y2="5" style="visibility: inherit;" fill="rgb(0, 0, 0)" stroke="rgb(204, 204, 204)" stroke-width="1px"></line><line x1="144.4140625" y1="0" x2="144.4140625" y2="5" style="visibility: inherit;" fill="rgb(0, 0, 0)" stroke="rgb(204, 204, 204)" stroke-width="1px"></line><line x1="168.48307291666669" y1="0" x2="168.48307291666669" y2="5" style="visibility: inherit;" fill="rgb(0, 0, 0)" stroke="rgb(204, 204, 204)" stroke-width="1px"></line><line x1="192.55208333333331" y1="0" x2="192.55208333333331" y2="5" style="visibility: inherit;" fill="rgb(0, 0, 0)" stroke="rgb(204, 204, 204)" stroke-width="1px"></line><line x1="216.62109375" y1="0" x2="216.62109375" y2="5" style="visibility: inherit;" fill="rgb(0, 0, 0)" stroke="rgb(204, 204, 204)" stroke-width="1px"></line><line x1="240.69010416666669" y1="0" x2="240.69010416666669" y2="5" style="visibility: inherit;" fill="rgb(0, 0, 0)" stroke="rgb(204, 204, 204)" stroke-width="1px"></line><line x1="264.7591145833333" y1="0" x2="264.7591145833333" y2="5" style="visibility: inherit;" fill="rgb(0, 0, 0)" stroke="rgb(204, 204, 204)" stroke-width="1px"></line><line x1="288.828125" y1="0" x2="288.828125" y2="5" style="visibility: inherit;" fill="rgb(0, 0, 0)" stroke="rgb(204, 204, 204)" stroke-width="1px"></line></g><g transform="translate(0, 8)"><text x="0" y="0" dx="0em" dy="0.95em" style="text-anchor: middle; visibility: hidden; font-family: Roboto, sans-serif; font-size: 12px; font-weight: 200;" fill="rgb(33, 33, 33)" stroke="none" stroke-width="1px">-200k</text><text x="24.069010416666664" y="0" dx="0em" dy="0.95em" style="text-anchor: middle; visibility: inherit; font-family: Roboto, sans-serif; font-size: 12px; font-weight: 200;" fill="rgb(33, 33, 33)" stroke="none" stroke-width="1px">0</text><text x="48.13802083333333" y="0" dx="0em" dy="0.95em" style="text-anchor: middle; visibility: hidden; font-family: Roboto, sans-serif; font-size: 12px; font-weight: 200;" fill="rgb(33, 33, 33)" stroke="none" stroke-width="1px">200k</text><text x="72.20703125" y="0" dx="0em" dy="0.95em" style="text-anchor: middle; visibility: inherit; font-family: Roboto, sans-serif; font-size: 12px; font-weight: 200;" fill="rgb(33, 33, 33)" stroke="none" stroke-width="1px">400k</text><text x="96.27604166666666" y="0" dx="0em" dy="0.95em" style="text-anchor: middle; visibility: hidden; font-family: Roboto, sans-serif; font-size: 12px; font-weight: 200;" fill="rgb(33, 33, 33)" stroke="none" stroke-width="1px">600k</text><text x="120.34505208333334" y="0" dx="0em" dy="0.95em" style="text-anchor: middle; visibility: inherit; font-family: Roboto, sans-serif; font-size: 12px; font-weight: 200;" fill="rgb(33, 33, 33)" stroke="none" stroke-width="1px">800k</text><text x="144.4140625" y="0" dx="0em" dy="0.95em" style="text-anchor: middle; visibility: hidden; font-family: Roboto, sans-serif; font-size: 12px; font-weight: 200;" fill="rgb(33, 33, 33)" stroke="none" stroke-width="1px">1M</text><text x="168.48307291666669" y="0" dx="0em" dy="0.95em" style="text-anchor: middle; visibility: inherit; font-family: Roboto, sans-serif; font-size: 12px; font-weight: 200;" fill="rgb(33, 33, 33)" stroke="none" stroke-width="1px">1.2M</text><text x="192.55208333333331" y="0" dx="0em" dy="0.95em" style="text-anchor: middle; visibility: hidden; font-family: Roboto, sans-serif; font-size: 12px; font-weight: 200;" fill="rgb(33, 33, 33)" stroke="none" stroke-width="1px">1.4M</text><text x="216.62109375" y="0" dx="0em" dy="0.95em" style="text-anchor: middle; visibility: inherit; font-family: Roboto, sans-serif; font-size: 12px; font-weight: 200;" fill="rgb(33, 33, 33)" stroke="none" stroke-width="1px">1.6M</text><text x="240.69010416666669" y="0" dx="0em" dy="0.95em" style="text-anchor: middle; visibility: hidden; font-family: Roboto, sans-serif; font-size: 12px; font-weight: 200;" fill="rgb(33, 33, 33)" stroke="none" stroke-width="1px">1.8M</text><text x="264.7591145833333" y="0" dx="0em" dy="0.95em" style="text-anchor: middle; visibility: inherit; font-family: Roboto, sans-serif; font-size: 12px; font-weight: 200;" fill="rgb(33, 33, 33)" stroke="none" stroke-width="1px">2M</text><text x="288.828125" y="0" dx="0em" dy="0.95em" style="text-anchor: middle; visibility: hidden; font-family: Roboto, sans-serif; font-size: 12px; font-weight: 200;" fill="rgb(33, 33, 33)" stroke="none" stroke-width="1px">2.2M</text></g><line x1="0" y1="0" x2="288.828125" y2="0" fill="rgb(0, 0, 0)" stroke="rgb(204, 204, 204)" stroke-width="1px"></line></g></g></g></g></svg>