<svg viewBox="0 0 330 200" xmlns="http://www.w3.org/2000/svg"><g><g><g><g><g><line x1="41.171875" y1="177" x2="36.171875" y2="177" style="visibility: inherit;" fill="rgb(0, 0, 0)" stroke="rgb(204, 204, 204)" stroke-width="1px"></line><line x1="41.171875" y1="157.33333333333331" x2="36.171875" y2="157.33333333333331" style="visibility: inherit;" fill="rgb(0, 0, 0)" stroke="rgb(204, 204, 204)" stroke-width="1px"></line><line x1="41.171875" y1="137.66666666666666" x2="36.171875" y2="137.66666666666666" style="visibility: inherit;" fill="rgb(0, 0, 0)" stroke="rgb(204, 204, 204)" stroke-width="1px"></line><line x1="41.171875" y1="118.00000000000001" x2="36.171875" y2="118.00000000000001" style="visibility: inherit;" fill="rgb(0, 0, 0)" stroke="rgb(204, 204, 204)" stroke-width="1px"></line><line x1="41.171875" y1="98.33333333333334" x2="36.171875" y2="98.33333333333334" style="visibility: inherit;" fill="rgb(0, 0, 0)" stroke="rgb(204, 204, 204)" stroke-width="1px"></line><line x1="41.171875" y1="78.66666666666666" x2="36.171875" y2="78.66666666666666" style="visibility: inherit;" fill="rgb(0, 0, 0)" stroke="rgb(204, 204, 204)" stroke-width="1px"></line><line x1="41.171875" y1="59.00000000000001" x2="36.171875" y2="59.00000000000001" style="visibility: inherit;" fill="rgb(0, 0, 0)" stroke="rgb(204, 204, 204)" stroke-width="1px"></line><line x1="41.171875" y1="39.33333333333333" x2="36.171875" y2="39.33333333333333" style="visibility: inherit;" fill="rgb(0, 0, 0)" stroke="rgb(204, 204, 204)" stroke-width="1px"></line><line x1="41.171875" y1="19.666666666666675" x2="36.171875" y2="19.666666666666675" style="visibility: inherit;" fill="rgb(0, 0, 0)" stroke="rgb(204, 204, 204)" stroke-width="1px"></line><line x1="41.171875" y1="0" x2="36.171875" y2="0" style="visibility: inherit;" fill="rgb(0, 0, 0)" stroke="rgb(204, 204, 204)" stroke-width="1px"></line></g><g transform="translate(31.171875, 0)"><text x="0" y="177" dx="0em" dy="0.3em" style="text-anchor: end; visibility: hidden; font-family: Roboto, sans-serif; font-size: 12px; font-weight: 200;" fill="rgb(33, 33, 33)" stroke="none" stroke-width="1px">20</text><text x="0" y="157.33333333333331" dx="0em" dy="0.3em" style="text-anchor: end; visibility: inherit; font-family: Roboto, sans-serif; font-size: 12px; font-weight: 200;" fill="rgb(33, 33, 33)" stroke="none" stroke-width="1px">40</text><text x="0" y="137.66666666666666" dx="0em" dy="0.3em" style="text-anchor: end; visibility: hidden; font-family: Roboto, sans-serif; font-size: 12px; font-weight: 200;" fill="rgb(33, 33, 33)" stroke="none" stroke-width="1px">60</text><text x="0" y="118.00000000000001" dx="0em" dy="0.3em" style="text-anchor: end; visibility: inherit; font-family: Roboto, sans-serif; font-size: 12px; font-weight: 200;" fill="rgb(33, 33, 33)" stroke="none" stroke-width="1px">80</text><text x="0" y="98.33333333333334" dx="0em" dy="0.3em" style="text-anchor: end; visibility: hidden; font-family: Roboto, sans-serif; font-size: 12px; font-weight: 200;" fill="rgb(33, 33, 33)" stroke="none" stroke-width="1px">100</text><text x="0" y="78.66666666666666" dx="0em" dy="0.3em" style="text-anchor: end; visibility: inherit; font-family: Roboto, sans-serif; font-size: 12px; font-weight: 200;" fill="rgb(33, 33, 33)" stroke="none" stroke-width="1px">120</text><text x="0" y="59.00000000000001" dx="0em" dy="0.3em" style="text-anchor: end; visibility: hidden; font-family: Roboto, sans-serif; font-size: 12px; font-weight: 200;" fill="rgb(33, 33, 33)" stroke="none" stroke-width="1px">140</text><text x="0" y="39.33333333333333" dx="0em" dy="0.3em" style="text-anchor: end; visibility: inherit; font-family: Roboto, sans-serif; font-size: 12px; font-weight: 200;" fill="rgb(33, 33, 33)" stroke="none" stroke-width="1px">160</text><text x="0" y="19.666666666666675" dx="0em" dy="0.3em" style="text-anchor: end; visibility: hidden; font-family: Roboto, sans-serif; font-size: 12px; font-weight: 200;" fill="rgb(33, 33, 33)" stroke="none" stroke-width="1px">180</text><text x="0" y="0" dx="0em" dy="0.3em" style="text-anchor: end; visibility: hidden; font-family: Roboto, sans-serif; font-size: 12px; font-weight: 200;" fill="rgb(33, 33, 33)" stroke="none" stroke-width="1px">200</text></g><line x1="41.171875" y1="0" x2="41.171875" y2="177" fill="rgb(0, 0, 0)" stroke="rgb(204, 204, 204)" stroke-width="1px"></line></g></g><g transform="translate(41, 0)" clip-path="url(#clip_0)"><clipPath id="clip_0"><rect width="288" height="177"></rect></clipPath><g><g><g><line x1="0" y1="0" x2="0" y2="177" fill="rgb(0, 0, 0)" stroke="rgb(66, 66, 66)" stroke-width="1px" opacity="0.25"></line><line x1="24.069010416666664" y1="0" x2="24.069010416666664" y2="177" fill="rgb(0, 0, 0)" stroke="rgb(66, 66, 66)" stroke-width="1px" opacity="0.25"></line><line x1="48.13802083333333" y1="0" x2="48.13802083333333" y2="177" fill="rgb(0, 0, 0)" stroke="rgb(66, 66, 66)" stroke-width="1px" opacity="0.25"></line><line x1="72.20703125" y1="0" x2="72.20703125" y2="177" fill="rgb(0, 0, 0)" stroke="rgb(66, 66, 66)" stroke-width="1px" opacity="0.25"></line><line x1="96.27604166666666" y1="0" x2="96.27604166666666" y2="177" fill="rgb(0, 0, 0)" stroke="rgb(66, 66, 66)" stroke-width="1px" opacity="0.25"></line><line x1="120.34505208333334" y1="0" x2="120.34505208333334" y2="177" fill="rgb(0, 0, 0)" stroke="rgb(66, 66, 66)" stroke-width="1px" opacity="0.25"></line><line x1="144.4140625" y1="0" x2="144.4140625" y2="177" fill="rgb(0, 0, 0)" stroke="rgb(66, 66, 66)" stroke-width="1px" opacity="0.25"></line><line x1="168.48307291666669" y1="0" x2="168.48307291666669" y2="177" fill="rgb(0, 0, 0)" stroke="rgb(66, 66, 66)" stroke-width="1px" opacity="0.25"></line><line x1="192.55208333333331" y1="0" x2="192.55208333333331" y2="177" fill="rgb(0, 0, 0)" stroke="rgb(66, 66, 66)" stroke-width="1px" opacity="0.25"></line><line x1="216.62109375" y1="0" x2="216.62109375" y2="177" fill="rgb(0, 0, 0)" stroke="rgb(66, 66, 66)" stroke-width="1px" opacity="0.25"></line><line x1="240.69010416666669" y1="0" x2="240.69010416666669" y2="177" fill="rgb(0, 0, 0)" stroke="rgb(66, 66, 66)" stroke-width="1px" opacity="0.25"></line><line x1="264.7591145833333" y1="0" x2="264.7591145833333" y2="177" fill="rgb(0, 0, 0)" stroke="rgb(66, 66, 66)" stroke-width="1px" opacity="0.25"></line><line x1="288.828125" y1="0" x2="288.828125" y2="177" fill="rgb(0, 0, 0)" stroke="rgb(66, 66, 66)" stroke-width="1px" opacity="0.25"></line></g><g><line x1="0" y1="177" x2="288.828125" y2="177" fill="rgb(0, 0, 0)" stroke="rgb(66, 66, 66)" stroke-width="1px" opacity="0.25"></line><line x1="0" y1="157.33333333333331" x2="288.828125" y2="157.33333333333331" fill="rgb(0, 0, 0)" stroke="rgb(66, 66, 66)" stroke-width="1px" opacity="0.25"></line><line x1="0" y1="137.66666666666666" x2="288.828125" y2="137.66666666666666" fill="rgb(0, 0, 0)" stroke="rgb(66, 66, 66)" stroke-width="1px" opacity="0.25"></line><line x1="0" y1="118.00000000000001" x2="288.828125" y2="118.00000000000001" fill="rgb(0, 0, 0)" stroke="rgb(66, 66, 66)" stroke-width="1px" opacity="0.25"></line><line x1="0" y1="98.33333333333334" x2="288.828125" y2="98.33333333333334" fill="rgb(0, 0, 0)" stroke="rgb(66, 66, 66)" stroke-width="1px" opacity="0.25"></line><line x1="0" y1="78.66666666666666" x2="288.828125" y2="78.66666666666666" fill="rgb(0, 0, 0)" stroke="rgb(66, 66, 66)" stroke-width="1px" opacity="0.25"></line><line x1="0" y1="59.00000000000001" x2="288.828125" y2="59.00000000000001" fill="rgb(0, 0, 0)" stroke="rgb(66, 66, 66)" stroke-width="1px" opacity="0.25"></line><line x1="0" y1="39.33333333333333" x2="288.828125" y2="39.33333333333333" fill="rgb(0, 0, 0)" stroke="rgb(66, 66, 66)" stroke-width="1px" opacity="0.25"></line><line x1="0" y1="19.666666666666675" x2="288.828125" y2="19.666666666666675" fill="rgb(0, 0, 0)" stroke="rgb(66, 66, 66)" stroke-width="1px" opacity="0.25"></line><line x1="0" y1="0" x2="288.828125" y2="0" fill="rgb(0, 0, 0)" stroke="rgb(66, 66, 66)" stroke-width="1px" opacity="0.25"></line></g></g></g><g><g><line x1="0" y1="196.66666666666669" x2="288.828125" y2="196.66666666666669" fill="rgb(0, 0, 0)" stroke="rgb(153, 153, 153)" stroke-width="1.5px"></line></g></g><g><g><line x1="24.069010416666664" y1="0" x2="24.069010416666664" y2="177" fill="rgb(0, 0, 0)" stroke="rgb(153, 153, 153)" stroke-width="1.5px"></line></g></g><g><g><g><g><g><path stroke="rgb(255, 112, 67)" stroke-width="2px" d="M24.161435416666666,157.33333333333331L24.276966666666667,159.4035087719298L24.28466875,155.73677736777367L24.409827604166665,157.34477076669575L24.513805729166666,160.22347032632496L24.800708333333333,160.44610959701268L24.831516666666666,159.09551198756535L25.106866145833333,159.47672878793628L25.12997239583333,160.4110191305435L25.216620833333334,161.75019086072993L25.299418229166665,162.25293968191727L25.451534375,162.66363946234443L25.4630875,164.0584959994978L25.501597916666668,163.6964999905532L25.940616666666664,163.88583171447823L26.121615625,163.56434263404287L26.181306770833334,164.23270585229326L26.454730729166666,163.88372121131937L26.56833645833333,162.67161097004384L26.633804166666664,162.5116716525474L26.668463541666668,160.16357850915617L26.672314583333332,159.8496380485074L26.880270833333334,160.86829007582577L26.934185416666665,161.3390086115264L26.999653125,160.90746031859862L27.043940104166666,161.36636445904614L27.238417708333333,161.77339683898677L27.273077083333334,162.13498055318476L27.475256770833333,160.8055303489476L27.500288541666666,161.26443062843302L27.56768177083333,159.62892294017718L27.573458333333335,159.79852076592854L27.640851562499996,160.35589325749106L27.667808854166665,160.04499016750623L27.789116666666665,160.17029437663098L28.278198958333334,159.88005975068614L28.3918046875,160.82453691191517L28.399506770833334,159.26699451473723L28.4264640625,158.6704986911033L28.534293229166664,159.73247916438802L28.578580208333335,159.0906937078128L28.788461979166666,158.91282817254336L28.803866145833336,159.54839374187452L28.929025,160.11908881861854L28.97716302083333,158.64767078711765L29.22940625,158.51519643354064L29.327607812500002,158.79230249989104L29.679978125,159.04132335795674L29.92644479166667,160.05633674530645L29.9399234375,160.57336773225776L29.999614583333333,161.43335324718828L30.020795312500002,161.81159692259953L30.230677083333333,160.96726498903683L30.263410937499998,160.60263887968887L30.359686979166668,161.45831235568843L30.411676041666666,161.8335087558391L30.45596302083333,162.17098978269865L30.588823958333332,161.68614850223764L30.6388875,160.85587586481256L30.698578645833333,160.89702889742145L30.835290625,161.32802305853133L30.973928125,162.10969186619934L31.043246875,162.4191280473228L31.110640104166666,162.6975434995476L31.135671875000003,160.97929922538341L31.2107671875,162.18919142254995L31.368659895833336,162.88420297915798L31.593945833333333,163.11596195933066L31.68637083333333,162.53729623045533L31.7191046875,163.19731349353364L31.790348958333333,159.46214246994106L31.7999765625,158.8556203955348L31.809604166666666,158.7033221231331L32.013709375,159.74675219649984L32.217814583333336,158.32488423541037L32.298686458333336,159.0126248223574L32.32949479166667,159.63154782557294L32.39881354166667,159.40166437181472L32.41806875,158.40792337122352L32.452728125,159.0872794560825L32.6202484375,160.09208241524973L32.69919479166666,160.9963675332821L32.743481770833334,160.63000576361353L32.75503489583333,161.0870707034525L32.99765052083333,161.4984166996234L33.149766666666665,162.26199701948545L33.34231875,162.16245358234477L33.37312708333334,162.8596071220212L33.38660572916667,163.48703284940575L33.41933958333333,163.65834261438877L33.8679859375,164.2058792251815L33.91804947916667,164.3052974371301L33.979666145833335,164.78812783990963L34.070165625,165.2226701076563L34.09712291666666,165.2204029949115L34.100973958333334,165.61171187041063L34.185696875000005,164.39049618790062L34.21650520833333,163.68475675994208L34.42061041666667,163.44294061397554L34.47645052083333,160.07855718984786L34.643970833333334,159.01734276892415L34.81149114583334,160.02896359011703L34.81149114583334,160.93941819380768L34.823044270833336,160.18546323530376L35.0232984375,160.68692477681677L35.0926171875,161.13823866979914L35.109946875,160.75774330225008L35.12920208333333,160.80863622059178L35.248584375,161.2477771174813L35.25050989583333,160.46299213753565L35.29864791666667,161.33003348412046L35.310201041666666,161.71703303887207L35.3352328125,160.88532411965951L35.47001927083333,160.5301228826835L35.52971041666667,161.39044863266048L35.552816666666665,161.77140564441947L36.172834374999994,162.5076016744331L36.421226562499996,163.17017748182963L36.48669427083333,162.97982571732146L36.6465125,161.23517084500284L37.145222395833336,159.66498253036397L37.47063541666667,159.0384826385985L37.67666614583333,158.08129878807935L37.81145260416667,157.61316791743866L37.82108020833333,158.76518665574065L38.113759375,157.83533306106153L38.402587499999996,156.21179724734202L38.56625677083333,156.32395101184434L38.728000520833334,155.2448878940032L38.79346822916667,154.66706512065934L38.799244791666666,156.11369340789878L38.8011703125,155.05565643547607L39.070743229166666,154.49675699983314L39.438517708333336,155.96041571445798L39.59448489583333,155.70437397277692L39.692686458333334,157.0472707124029L39.79281354166667,155.8958763544157L39.869834374999996,156.82628916993824L39.939153125,157.6636606182253L40.51488385416667,157.237294389011L40.59575572916667,152.52689661906734L40.59960677083333,153.794207360174L40.78253125,153.75478661287414L40.846073437499996,154.89930824639885L41.119497395833335,156.3227110850754L41.13875260416666,156.42377333098725L41.17918854166667,157.69472956988176L41.41987864583333,157.26525654031187L41.51422916666667,156.4853974343295L41.54118645833333,154.6035240999508L41.5450375,156.05650520229972L41.58932447916667,156.57752140650777L41.75299375,157.04643597931846L42.082257812499996,155.5017922426552L42.2208953125,156.47161309678327L42.367234895833334,157.34445185060375L42.54053177083333,156.95000663971717L42.586744270833336,156.5950059548262L42.609850520833334,155.8821719882054L42.873646875,154.84728807332203L42.9025296875,155.09589261000275L42.95066770833333,156.10630338806718L43.303038020833334,157.4090064279226L43.3531015625,156.22143908127336L43.370431249999996,156.33262850961322L43.399314062500004,157.61269902445582L43.50521770833333,157.19142911239283L43.536026041666666,154.45228614487323L43.551430208333336,153.16705750661944L43.66888697916667,154.37035177598372L43.684291145833335,155.45331661460654L43.88261979166667,156.03465162764934L43.94616197916667,156.16451979979337L43.95001302083333,154.31473446628226L44.362074479166665,153.04326100715872L44.510339583333334,153.07893490675838L44.795316666666665,154.6843747621955L44.89544375,154.55593728505582L44.99749635416667,154.04701021993546L45.25166510416667,152.80230919071894L45.48850416666667,150.50207825963363L45.679130729166666,149.21853709430374L45.692609375,151.21001672663144L45.72726874999999,152.21568172446385L45.90441666666667,152.72744688710443L46.083490104166664,154.76136887133316L46.1142984375,155.41189865267208L46.270265625,154.42404211827053L46.32610572916666,154.71497124043088L46.333807812500005,154.58347411612172L46.522508854166674,155.25179337239325L46.587976562499996,154.27994736689448L46.805560416666665,152.22528596050765L47.144452083333334,153.52275736617932L47.18103697916666,154.69048163095655L47.20414322916667,154.16810013396585L47.587321874999994,155.2712901216369L47.598875,155.47749444298617L47.864596875000004,156.44974499944968L48.003234375,156.93143716651124L48.328647395833336,157.36496011680205L48.53275260416667,158.14846410556956L49.0025796875,157.67361769476838L49.077675,156.85292259157833L49.14506822916666,157.68763033276824L49.46855572916667,156.07886729888824L49.5860125,153.84431390157872L49.95763802083333,152.61988251104898L49.965340104166664,151.12456092620204L50.13671145833333,148.20543816619707L50.33311458333333,146.36489434916987L50.714367708333334,147.06840491439306L50.73362291666667,148.09489775647117L50.8048671875,150.19874131449697L51.028227604166666,146.97886718257953L51.0474828125,148.40764713117503L51.32090677083333,148.90688241811628L51.47879947916667,147.78286084285227L51.561596875000006,148.7379080919914L51.58085208333333,149.20411728283224L51.7637765625,149.62370555458142L51.76570208333334,150.00133499914952L51.8099890625,149.55453483253996L51.99291354166667,151.51241468272946L52.09111510416667,153.2745065478791L52.22975260416667,152.50038922638925L52.25093333333333,153.77035030380242L52.283667187499994,154.12664860676867L52.41845364583333,154.8406504127822L52.520506250000004,156.26991870488004L52.55131458333334,155.98292683438433L52.872876562500004,155.33130081759677L53.086609374999995,156.31817073585862L53.14052395833333,156.81302032894914L53.402394791666666,154.5050516293468L53.50444739583333,152.82121313305203L53.57376614583333,149.73242515303596L53.608425520833336,148.5258493043835L53.69507395833333,147.8332643739371L54.001231770833336,146.42327126986206L54.122539583333335,147.90761080955642L54.15719895833333,148.8501830619421L54.272730208333336,149.69849808908765L54.3978890625,148.88864828017336L54.45758020833333,148.5531167854873L54.596217708333334,149.03780510694125L55.094927604166664,150.6540245962552L55.11033177083334,152.50195546997128L55.20853333333333,151.01842658963483L55.505063541666665,149.2899172639984L55.56282916666667,148.9142588709307L55.67836041666666,147.78949965050094L55.974890625,147.17054968544923L56.026879687500006,148.97349471690862L56.09812395833333,150.5961452452212L56.17129375,151.26986405403372L56.18669791666667,152.6628776486328L56.24831458333334,151.9499232171017L56.402356250000004,150.12826422872232L56.42161145833333,151.24210447251815L56.47937708333333,152.63789402526794L57.024299479166665,154.28743795607616L57.07051197916667,154.59202749380216L57.149458333333335,152.50615807775355L57.530711458333336,154.16887560331276L57.704008333333334,150.55198804297908L57.86190104166667,149.6567892386806L57.97165572916666,151.60444364814694L58.479993229166666,152.17733261666586L58.53005677083333,151.11959935499883L58.76882135416667,151.7409727528325L59.12119166666667,152.3002088108828L59.290637499999995,150.44352126312725L59.58331666666667,151.91916913681496L59.63915677083334,152.85391888980038L59.74506041666667,154.48186033415405L59.797049479166674,154.76700763407206L59.808602604166666,155.0236402039982L59.89910208333333,155.25460951693177L60.035814062499995,153.1024818985716L60.1397921875,151.5589003753809L60.37085468750001,150.16967700450928L60.3824078125,149.70604263739165L60.42284375,150.86210504031928L60.476758333333336,149.93589453628724L60.4921625,150.67563841599193L60.573034375,152.12807457439283L60.75403333333333,151.46860045028683L60.85801145833333,151.66174040525817L61.30473229166666,153.01556636473242L61.51268854166666,153.44734306159253L61.62244322916667,153.4426087554333L61.709091666666666,154.22501454655665L61.77070833333334,155.71584642523436L61.8034421875,153.12426178271085L62.12500416666666,152.7585022711064L62.211652604166666,147.70931871066233L62.3117796875,148.67172017292944L62.35029010416667,148.75121482230318L62.40805572916667,150.3960933400729L62.60830989583333,149.90981733939893L62.997265104166665,151.43883560545908L63.174413020833335,149.2749520449131L63.5017515625,151.26079017375517L63.70008020833333,150.29471115637963L63.7674734375,147.85190670740832L63.84256875,149.5867160366675L63.93306822916667,149.96804443300076L64.59544739583333,151.49123998970072L64.62625572916667,149.71544932406397L64.80918020833333,149.2972377249909L64.8419140625,147.3475139524918L65.1769546875,145.98609589057597L65.23664583333333,145.15415296818503L65.46000625,142.4387376713665L65.5119953125,140.7815305708965L65.5466546875,139.29004418047353L65.67566458333333,140.30770642909286L65.70262187499999,142.79693578618358L65.748834375,143.4639088742319L66.29568229166667,145.24418465347537L66.32263958333334,144.87976618812783L66.49593645833333,146.51845623598172L66.55370208333333,145.63327727905022L66.9099234375,140.11661621781184L67.07359270833334,139.87162126269732L67.14291145833333,137.6844591364276L67.3258359375,139.25601322278484L67.3258359375,140.67041190050634L67.3836015625,141.15670404378906L67.65124895833333,141.20103363941013L67.67628072916666,141.63426360880248L68.31362812500001,143.99083724792223L68.42145729166667,145.71842018979666L68.43878697916666,141.37324483748364L68.57164791666666,141.00258702040196L68.79693385416667,143.81566165169508L68.8392953125,145.9540954865256L68.9432734375,145.1253526045397L68.95675208333333,143.1994840107524L68.97600729166666,141.85953560967715L69.10886822916667,144.19358204870943L69.14160208333334,143.14755717717182L69.29756927083334,143.77946812612132L69.399621875,143.95485464684253L69.52478072916666,144.89936918215827L69.5671421875,146.5360989306091L69.61720572916667,148.79582237088152L69.89255520833333,145.71624013379338L69.95224635416668,144.12461612041403L70.06585208333334,143.87215450837263L70.97854895833333,144.82493905753537L71.01320833333334,145.68244515178185L71.19998385416666,147.2408673032703L71.51191822916667,149.4301139062766L71.5773859375,148.64710251564895L71.79882083333334,147.54905893075073L71.90665,150.1008197043423L72.15311666666666,152.0040710672414L72.17429739583334,153.32366396051725L72.2936796875,152.9379642311322L72.334115625,154.16416780801902L72.5131890625,153.69441769388376L72.95413333333333,151.30497592449538L72.9984203125,153.08781166537918L73.03307968749999,153.11903049884128L73.11587708333334,153.9337941156238L73.26799322916666,153.09374803739476L73.535640625,151.55103990032194L73.6916078125,150.16260257695643L73.72241614583334,148.51967565259412L73.87260677083333,150.58104142066804L73.97658489583334,150.8629372786012L74.4656671875,150.32997688407443L74.75064427083333,152.21031252900033L74.94704739583332,152.3292812761003L74.96052604166667,152.04301981515695L75.21854583333332,151.39205116697457L75.39569374999999,148.8395127169438L75.81930833333334,148.1155614452494L76.34882656250001,147.46400530072447L76.37963489583333,144.1242714373187L76.40466666666667,144.65851096025347L76.57411250000001,140.0259931975615L76.7416328125,135.46339387780534L76.8802703125,135.68372115669146L77.01313125,138.24201570768898L77.19027916666667,134.25114747025341L77.31158697916666,131.8393660565614L77.77371197916666,132.02876278423858L77.90079635416667,128.65921983914805L77.95278541666666,128.77329785523324L78.74417447916667,130.8426347363766L78.76535520833333,134.27837126273891L78.92324791666667,133.04386746979836L78.95020520833334,134.29281405615185L79.30835208333333,129.51686598387002L79.39114947916667,133.47851271881632L79.43543645833333,126.03066144693469L79.6299140625,126.80092863557458L79.889859375,127.8875024386838L79.89371041666666,128.86541886148208L80.20179375,130.1388769753339L80.2768890625,132.85832261113381L80.40012239583334,132.15915701668712L80.48291979166666,131.52990798168508L80.58112135416665,122.70358385018324L80.7390140625,124.19989213183156L81.0105125,126.72656958531508L81.26083020833335,126.64057929345022L81.33255585937499,130.4965213641052L81.334,133.18020256102804L81.49381822916666,135.59551563825855L81.55928593750001,133.44263074109938L81.75809596354166,136.61836766698943L81.8481140625,134.75653090029047L81.89625208333334,133.86754447692812L81.96605221354166,137.39412336256862L82.0271875,130.73471102631177L82.131165625,131.42790659034728L82.40458958333333,134.80511593131254L82.43539791666667,134.6979376715146L82.708821875,135.38814390436315L82.73963020833332,133.64932951392683L82.87249114583334,134.05106322920082L82.91148294270833,136.37929023961408L82.92640572916666,137.68802788231932L83.18875794270834,137.29255842742074L83.240265625,138.90330258467867L83.32306302083333,139.95963899287747L83.3615734375,142.09034176025636L83.84873020833334,143.61464091756406L83.99121875,143.01984349247434L84.05090989583334,144.45119247656024L84.19147291666667,142.19940656223753L84.40713125,142.92613257268047L84.57465156250001,143.5801859820791L84.59198124999999,145.34883405053785L84.59246263020833,141.43395064548403L85.06758489583333,142.2372222476023L85.14653125,144.92683335617542L85.45894700520833,144.9874833538912L85.828165625,142.28873501850208L86.29029062500001,141.82652818331854L86.53098072916666,140.62387536498667L86.66817408854166,131.67482116182137L86.81980885416667,133.06067237897255L87.05472239583332,133.12793847440864L87.1047859375,134.3684779603011L87.241979296875,128.40496349760434L87.30504010416666,128.93780048117725L87.35365950520833,132.5640204330595L87.57894544270833,133.86095172308688L87.87306875,123.62152321744486L87.95057096354167,125.4193708957004L88.023259375,127.43076713946368L88.08487604166666,130.81435709218397L88.21003489583333,127.95958804963225L88.22351354166668,121.45696257800236L88.52196927083334,121.50459965353546L88.78191458333333,121.94080635484859L88.9648390625,124.30005905269704L89.3287625,126.81671981409401L89.6811328125,128.2950478326846L90.17599166666668,130.80554304941614L90.28574635416666,132.27832207780784L90.2934484375,133.99715653669375L90.4551921875,126.8907742163577L90.49370260416667,129.14836346138858L90.60730833333334,131.1801937819164L90.66699947916666,133.0088410703914L90.70550989583333,130.72129029668562L90.74594583333334,132.59582793368372L90.911540625,133.8895784736487L91.01744427083334,134.26728729295047L91.812684375,128.7072252303221L91.94169427083332,128.81650270728989L92.02834270833334,126.55485243656089L92.05337447916668,130.81270052623813L92.18623541666666,132.67809714028098L92.43125794270833,130.42362075958624L92.49431875,131.93459201696095L93.0315390625,131.72113281526484L93.05512669270833,130.34901953373839L93.21638906250001,131.0807842470312L93.87299166666666,131.3460391556614L93.92931315104167,134.33810190676195L94.17722395833333,133.88429171608576L94.33896770833334,135.44252921114384L94.50263697916667,136.84494295669612L95.02060208333333,132.20711532769317L95.09377187499999,126.06640379492387L95.45191875,128.40643008209815L95.70271783854167,123.43245374055499L96.08348958333333,126.82254169983283L96.29529687499999,127.90695419651622L96.77667708333334,127.70292544353126L96.9076125,125.94596623251148L97.15215364583332,121.21803627592698L97.374069921875,116.56956598166762L97.58539583333332,120.25260938350085L97.62438763020833,120.42068177848411L97.72018229166666,124.89861360063568L97.86267083333334,124.60208557390546L98.25547708333335,122.76187701651492L98.41529531249999,121.49902264819676L98.88127135416667,120.36245371671042L99.03194335937499,120.91287501170602L99.27070794270834,108.7232541772021L99.28948177083333,109.25759542614855L99.355430859375,112.88516921686704L99.47096210937501,109.85665229518034L99.56098020833333,112.24432039899563L99.6745859375,110.06655502576274L99.69961770833332,113.61323285651979L99.83103450520834,118.77190957086778L100.10830950520833,118.69471861378099L100.23876354166667,121.37858008573625L100.32396783854166,124.97405541049594L100.33744648437501,129.3899832027797L100.43757356770834,129.43098488250172L100.44671979166667,132.22121972758487L100.47993502604167,130.0124310881597L100.72014374999999,133.53118797934374L101.37096979166668,135.12473584807603L101.66557447916666,134.98559559660177L102.151287109375,134.46703603694158L102.18402096354166,130.0669990999141L102.34961575520833,133.18696585658935L102.769379296875,136.3882692709304L103.02354804687499,139.26944234383737L103.40480117187501,139.1091647761203L103.89773450520833,137.78491496517492L104.040223046875,135.80642346865744L104.10569075520833,136.77911445512504L104.15190325520832,136.08120300961252L104.629432421875,136.63308270865127L104.64916901041667,133.58977443778613L104.97987721354167,134.78413032734088L105.16280169270833,135.07238396127346L105.247524609375,130.21847889847945L105.43670703125,130.1766310086315L105.80640703125,117.06063457443501L106.08705169270834,117.94123778365818L106.28971276041668,117.55378067195903L106.44567994791667,120.74506927142981L106.916951171875,122.83056234428683L107.08639700520833,127.06750610985814L107.10998463541668,123.40742216553899L107.19037513020834,116.57334661565174L107.21396276041666,115.53601195408658L107.26017526041666,115.78241075867791L107.42191901041666,113.25083634947678L107.44502526041667,114.90575271452911L108.19164596354167,117.57517744307621L108.89494244791666,121.1576596987686L109.42060963541665,124.38189372889174L109.46297109375,126.89037102266924L109.68199908854167,127.57466725373565L109.99200794270834,128.97720052836206L110.00741210937501,118.4394804755259L110.085395703125,113.28219909463995L110.16819309895834,115.32731251850927L110.30057265625,118.741247933325L110.41610390625,116.70045647332583L110.47338815104166,118.40374415932659L111.01445950520834,116.7900364100606L111.49247005208333,118.87769943572121L111.913677734375,118.39659615881577L112.25064388020833,119.93026987626753L112.42875455729167,122.09724288864078L112.46630221354167,120.90085193311003L113.18115182291668,122.18410007313234L113.24854505208333,123.73235673248578L113.49308619791665,126.6991210592372L113.56240494791666,123.46920895331347L113.59898984375,122.92228805798214L113.66493893229166,124.79005925218392L114.25174140624999,127.2577199936322L114.58100546875,119.64528132760232L114.58100546875,123.02075319484209L114.65610078125,115.04534454202457L114.69461119791666,115.34081008782208L114.82939765625,115.6067290790399L114.88908880208334,117.81272283780255L115.13748098958332,119.01145055402229L115.38009661458332,118.51697216528672L115.535582421875,116.89194161542473L115.88843411458333,118.57608078721557L115.89421067708332,113.79847270849402L116.1377890625,108.71195877097794L116.83338346354168,112.3940962272135L117.41922317708332,118.06801993782547L117.87123919270833,110.98121794404292L117.91552617187499,110.50309614963864L118.35358216145833,114.00611986800808L118.51003072916666,116.76550788120727L119.15700572916667,116.49562375975323L119.2340265625,108.77939471711123L119.72840403645834,111.66812191206678L119.90699609375001,106.4013097208601L119.96476171875,105.98784541544076L120.644951953125,107.18906087389668L120.70127343749999,112.20348811984034L120.99972916666667,113.17647264118965L121.18698606770833,117.19882537707068L121.211055078125,105.47894283936363L121.54465156250001,107.51771522209391L121.82337070312501,103.45261036655118L122.36829309895833,108.8406826632294L122.48960091145833,108.9699477302398L123.71326940104166,106.72628629054914L123.96551263020832,106.67365766149422L124.04253346354167,107.80629189534481L124.108001171875,104.49899603914368L124.55664752604167,108.60242976856263L124.58360481770833,111.90218679170637L124.75593893229166,107.3986347792024L124.94656549479166,109.24543796794882L126.09513867187499,110.51422750448728L126.17264088541666,114.4094714207052L126.24436653645833,112.80185761196803L126.83935247395833,118.43500518410457L127.20616419270833,122.32483799902742L127.39967903645834,122.67902086579134L127.92149518229166,123.39111877921222L128.05146783854167,114.98534023462433L128.15063216145833,114.50013954449523L128.18144049479167,112.09679225671236L128.59735299479166,110.32711303104114L129.29824257812498,111.8810683946037L129.49945950520834,115.63962822180997L129.73918684895833,118.23566539962899L130.22489947916668,119.39209885966608L130.55849596354167,118.07288897369946L130.647069921875,119.24560007632951L131.21221028645832,118.72770673536323L131.753281640625,123.37493606182689L132.05029322916667,118.51077578897755L132.12346302083333,118.06636487674643L132.9129265625,120.02639505573848L132.94373489583333,121.39708888349794L133.2595203125,122.23737999514815L133.78903854166666,119.45364199563333L134.32866575520833,121.27494446273667L134.41723971354168,125.27411668312969L134.43601354166665,124.15337168148336L134.702216796875,125.11136784666836L134.79079075520832,116.14023106200152L134.90680338541668,121.04620795580135L135.34293385416666,121.52825382688789L135.603360546875,116.06209511086576L136.45492213541667,116.64921893311252L137.14907239583331,116.78429703980127L137.50625651041668,121.23253400248782L137.82974401041665,119.33594726890571L138.05310442708333,121.1690192086818L138.47383072916665,115.34545062114697L138.54122395833335,116.79090555903227L138.60187786458334,108.25848166979571L138.99372135416667,110.8059668361495L139.08614635416666,112.70537015253454L139.24307630208332,111.66149980394775L139.36438411458332,102.46201649021964L139.56271276041667,101.26248150786435L139.58148658854168,104.50956669041125L139.83806223958334,105.4652766880368L139.85442916666668,101.99874901923313L139.85731744791667,107.53220745064313L139.87849817708332,112.11898670557882L140.081640625,113.49375470168758L140.42582747395835,111.1910458981855L140.60056848958334,107.9386079750336L140.75220325520834,109.73141384419691L140.97941471354167,112.52493912644388L141.096871484375,104.8124452137995L141.200849609375,109.67120069241953L141.34718919270833,112.47074728984425L141.87333776041666,113.8103392275265L141.97490898437502,109.1159719714405L142.31572617187499,112.36437477429645L142.471693359375,112.14127063020013L142.52994036458333,117.44714356718012L142.69216549479168,120.64909587712879L142.79181119791667,119.20418628941589L142.884717578125,116.7237676604743L142.89097552083334,108.59139089442687L142.94440872395833,105.20558513831752L143.225534765625,104.5183599578191L143.34347291666666,107.43985729537054L143.55142916666665,109.28253823250014L143.71702395833333,109.7609510759168L144.13438059895833,112.55152263499178L144.33078372395832,114.66970370482593L144.82275429687502,110.67606666767666L144.85163710937502,112.19512666757566L144.89929375,111.98894733415145L145.17705013020833,112.19671926740295L145.61029231770834,114.350380673996L146.879210546875,116.68200927326305L146.97356106770832,112.09380834593675L147.168038671875,116.61776084467641L147.19740286458332,112.4293180935421L147.300899609375,113.37971961752123L147.70766588541667,106.36841432243577L148.11009973958335,95.63323955685885L148.13128046875002,98.65658226783964L148.291580078125,102.95092404105569L148.77344166666666,99.34249830361676L149.14699270833333,99.24158180658841L149.33665651041665,101.90409029259625L149.8459567708333,98.40034793000328L150.15355872395833,96.82031313700294L150.47175104166666,100.11828182330265L150.78512955729167,98.75978697430573L151.41477486979167,99.50380827687513L151.9635483072917,104.5000941158543L152.052122265625,106.63675137093553L152.98118606770834,110.13307623384199L152.985037109375,105.01976861045779L154.00411901041667,109.07112508274535L154.111466796875,112.32401257447081L154.741112109375,110.53161131702372L155.45981276041667,104.98511685198801L156.257459765625,104.31993850012253L156.33062955729164,93.78961131677696L156.6637446614583,99.75065018509926L157.09313580729167,89.77558516658934L157.28424375,86.69802664993041L157.82050130208333,93.36822398493734L158.42174518229166,96.22473491977695L158.97340690104167,86.5039280944659L159.30507786458335,83.75353528501932L159.53421484375,75.77151508985072L159.62182604166668,72.12769691419898L159.92076315104165,77.89492722277909L159.98478671875,81.51210116716786L160.02474127604168,86.7342243837844L160.19274296875,85.14080194540595L160.49119869791664,88.03338841753202L161.07078046875,86.31004957577882L161.36008997395834,87.51237795153426L161.87661093749998,82.30114015638084L162.09563893229168,86.2643594740761L162.92698255208333,81.96459019333517L163.46035182291666,84.38813117400166L163.50848984375,85.78265138993481L163.83245872395835,86.64438625094134L164.17472005208333,77.88161429251389L165.39790716145833,86.22011952992915L166.36018619791665,85.07144091026957L166.5450361979167,85.21763015257595L166.60328320312502,76.59753380398503L166.92917760416665,68.83944709025319L167.02160260416665,62.74216904789454L167.35568046875,56.36961880977177L167.712383203125,60.56599026212793L167.73115703124998,60.802724569248475L167.91263736979167,54.6241187789903L168.40557070312502,52.30837356775795L168.47874049479168,58.0908695443155L168.6347076822917,60.935115923217296L168.7738265625,54.74327099756224L168.88887643229168,50.84227723113933L169.519003125,56.77138284135871L169.59698671875,58.567577890556166L169.6239440104167,66.87082010150054L169.7028903645833,74.34373809135049L170.51449739583333,69.26936428221543L170.9342609375,69.42242785399388L171.24426979166668,66.02018506859449L172.25950065104166,59.3198332284017L172.37358776041668,53.28951657222819L172.55554947916667,58.97389824833869L173.03211588541666,53.07650842350485L173.1582375,53.27552424782101L173.27376875000002,63.68130515637226L173.37678411458333,68.71984130740171L173.88993541666667,63.421190509994865L174.10511236979167,56.98073812566206L174.14939934895833,61.902664313095855L174.23412226562502,63.972397881786264L174.2846671875,65.83515809360762L175.19014335937499,59.153308950913534L175.21180546875001,55.9913113891555L175.25031588541665,62.192180250239964L175.84241354166667,66.19962889188264L175.87996119791666,72.16633266936103L176.31416614583335,81.86303273575827L176.71660000000003,78.00339612884912L176.751259375,82.78972318263085L176.81817122395833,85.13075086436776L177.46707174479167,76.51934244459764L177.66925143229167,78.7007415334712L177.81799791666668,83.81066738012409L177.98022304687498,81.72293397544502L178.01440104166664,76.69730724456718L178.26134908854166,68.92924318677716L178.52514544270832,69.11631886809943L178.64934153645834,70.8580203146228L178.86885091145834,64.5588849498272L179.41377330729168,66.75632978817781L179.43639817708333,71.09403014269334L179.74400013020832,63.88629379509067L180.06411796875003,66.54433108224826L180.65814114583333,66.18323130735676L180.87716914062503,64.28490817662107L180.87813190104166,72.80308402562564L181.16166484374997,78.50277562306307L181.17706901041666,87.17249806075677L181.20113802083333,81.20858158801443L181.27719609375,86.06772342921296L181.41775911458333,88.47428441962502L182.47872109374998,83.16685597766252L183.04049179687502,87.04350371322961L183.0477125,89.74582000857329L183.26914739583333,82.34457134104929L183.335096484375,82.76344754027771L183.87039127604166,87.46710278624994L184.36476875,78.62205917429162L184.36813841145832,82.9531865901958L184.43360611979168,88.81786793117622L184.45430546875002,79.83774780472528L184.9491643229167,82.8673063575861L185.02233411458334,79.30057572182749L185.15808333333334,80.81051814964474L185.541743359375,81.38279966801359L186.03804635416665,79.53785303454556L186.333132421875,80.23740106442433L186.34372278645833,79.68699429131524L186.84002578124998,76.83162819551706L187.41431236979167,69.93513204263203L188.01940729166665,62.8432855050355L188.09017018229167,60.098956954531936L188.13349440104167,63.52906125907875L188.14889856770833,64.25615513317085L188.55181380208336,66.09053961985377L188.71403893229166,68.9214856578684L188.74629140625,76.5826704254149L189.79088645833332,82.69107004954007L190.708878515625,75.99529637791942L191.049695703125,79.01576674012748L191.31301067708333,82.12752339944805L192.245444140625,88.07477105950323L192.28491731770833,87.13396062021958L192.34316432291666,81.17389789153094L193.34347239583334,87.60984143571117L193.57549765624998,93.4021906254734L194.67689557291666,88.78197156292603L195.20352552083335,84.2304410733001L195.226150390625,75.70906363263677L196.22260742187498,78.36482393603976L196.39975533854167,80.36167487576911L196.59134466145832,80.5855073881922L197.06454140625,83.93362331603964L197.30234322916667,86.16026098443568L197.530998828125,87.77090155265878L197.73943645833336,84.50047806405959L198.14957239583333,92.96376359098696L198.15294205729165,90.74738723188827L198.75803697916666,92.29264850869943L199.10559348958333,85.81671699116279L199.1816515625,89.03504529204652L199.51091562500002,95.07820742950852L199.56242330729165,99.33705335322433L199.92875364583332,99.63001468456856L200.02551106770835,89.5686798827784L200.80871666666664,85.72514522783388L200.98442044270834,92.4926307050505L201.93899739583335,93.47003430121212L202.45311145833335,95.92303087109092L202.53879713541667,91.05072778398183L203.89147552083335,81.84732167225032L204.21785130208335,87.03592283835862L206.13567005208333,86.1989972211894L206.48611484375002,92.1324308324038L206.519330078125,82.8208544158301L206.65411653645833,85.5521023075804L207.12875742187498,76.89855874348903L207.23610520833333,85.72870286914014L207.42191796875,83.0558325822261L207.47390703125,83.79691599067017L207.57307135416667,90.3638910582698L207.58799414062497,95.48750195244284L207.81809388020832,100.09875175719856L208.284069921875,104.64220991481203L209.462488671875,95.35798892333082L209.517366015625,89.75552336433107L210.06228841145833,82.3533043612313L210.19033554687502,74.01964059177485L210.69385924479167,80.38434319926402L210.74632968749998,75.88590887933762L210.86715611979167,68.19898465807053L211.38271432291666,65.31241952559682L211.70572044270833,64.28784423970382L212.94383033854166,62.57905981573345L212.98089661458334,68.90782050082677L213.19318528645832,61.91870511741075L214.904010546875,56.51350127233635L215.0094328125,61.87548447843603L215.22027734374998,59.62126936392578L216.01648020833335,54.05247576086654L216.02129401041668,48.548894851446555L216.21432747395832,54.70733869963526L216.21962265625,61.03660482967174L216.30242005208333,57.686277680037904L217.31331848958334,58.21098324536743L217.64884049479167,63.40321825416402L217.67435364583335,56.964563095414285L217.68927643229168,62.67477345253952L220.12409752604165,67.02729610728557L220.22085494791668,60.22623316322369L220.24011015625,64.82360984690132L220.51738515625001,68.96124886221119L220.74941041666668,70.3251239759901L220.94966458333334,69.19261157839108L221.0960041666667,67.38668375388531L221.17158085937498,63.794682045163434L221.26015481770833,57.31688050731375L221.34391497395833,55.518525789915714L221.460408984375,54.68667321092415L221.88065390625,57.084672556498404L222.02699348958333,51.27787196751527L222.49778333333333,46.0517514374304L222.54977239583334,50.49324296035403L222.693705078125,51.73725199765197L223.30457656250002,46.46519346455343L223.73396770833335,53.225340784764725L224.3178819010417,56.94947337295492L224.62115143229167,60.69452603565945L225.02214114583333,63.671740098760154L225.36536523437502,66.3512327555508L225.60990638020834,60.109442813329046L226.18611848958335,71.01183186532948L228.11452760416668,64.30398201212985L228.96753333333334,57.77525047758353L230.08240989583334,51.89939209649185L230.3635359375,55.75611955350934L230.54790455729167,50.08217426482507L230.9315645833333,44.97562350500924L232.16678619791668,40.379727821174995L232.38629557291665,36.24342170572416L233.0323078125,32.520746201818405L233.38515950520832,29.170338248303242L233.58011848958333,26.15497109013958L235.17348697916668,23.44114064779231L235.33667486979166,20.99869324967974L236.84580182291666,18.800490591378427L237.810969140625,16.822108198907234L238.54603671875,15.041564045683181L238.57491953125,16.290740974448184L239.09047773437499,15.84166687700337L239.82410117187501,14.159166855969705L240.71032213541667,12.644916837039396L241.63072109375,25.540425153335445L241.67308255208334,24.559715971335216L241.81508971354168,35.47707770753502L242.3561610677083,41.36936993678152L242.70131067708334,39.59243294310336L242.73211901041665,49.006522982126334L242.99398984375,48.825870683913706L243.97504270833335,43.943283615522326L245.80813854166666,43.87562192063676L246.71939127604168,43.814726395239745L246.78485898437498,51.233253755715744L247.81693815104168,53.97659504681084L248.64683763020832,48.48060220879642L249.23027044270833,58.185875321250116L249.5763828125,54.72728778912511L249.72994309895833,52.007892343545926L250.05391197916668,49.953769775857985L250.84096861979168,44.86005946493886L251.59769830729167,40.27572018511164L251.998206640625,36.641481499933825L252.51424622395834,42.024000016607076L252.75445494791666,49.228266681613036L252.85121236979165,44.20710668011839L253.479894921875,39.68806267877323L253.62045794270833,46.73258974422923L254.01759661458334,41.96099743647298L254.22555286458334,53.10489769282568L254.25732395833333,47.69607459020977L254.4055890625,50.00646713118877L254.80513463541666,49.33248708473656L255.55753190104167,54.23257170959624L257.1369403645833,48.71098120530327L257.2707640625,43.7415497514396L258.531498828125,54.70739477629562L258.97533138020833,49.138321965332715L259.24971809895834,46.191156435466134L259.34647552083334,41.47370745858618L259.36765625,52.66633671272755L259.42927291666666,47.30136970812148L260.8060203125,44.931232737309344L261.7861104166667,47.518109463578384L261.88142369791666,52.5996318505539L264.0832567708333,47.24133533216517L264.37930559895835,42.41886846561533L264.44477330729165,44.47031495238714L264.579559765625,46.709950123815084" style="fill: none;" fill="none"></path></g></g></g></g><g opacity="0.2"><g><g><g><path stroke="rgb(255, 112, 67)" stroke-width="2px" d="M24.161435416666666,157.33333333333331L24.276966666666667,161.26666666666665L24.28466875,149.46666666666667L24.409827604166665,161.26666666666665L24.513805729166666,169.13333333333335L24.800708333333333,161.26666666666665L24.831516666666666,153.4L25.106866145833333,161.26666666666665L25.12997239583333,165.2L25.216620833333334,169.13333333333335L25.299418229166665,165.2L25.451534375,165.2L25.4630875,173.06666666666666L25.501597916666668,161.26666666666665L25.940616666666664,165.2L26.121615625,161.26666666666665L26.181306770833334,169.13333333333335L26.454730729166666,161.26666666666665L26.56833645833333,153.4L26.633804166666664,161.26666666666665L26.668463541666668,141.6L26.672314583333332,157.33333333333331L26.880270833333334,169.13333333333335L26.934185416666665,165.2L26.999653125,157.33333333333331L27.043940104166666,165.2L27.238417708333333,165.2L27.273077083333334,165.2L27.475256770833333,149.46666666666667L27.500288541666666,165.2L27.56768177083333,145.53333333333333L27.573458333333335,161.26666666666665L27.640851562499996,165.2L27.667808854166665,157.33333333333331L27.789116666666665,161.26666666666665L28.278198958333334,157.33333333333331L28.3918046875,169.13333333333335L28.399506770833334,145.53333333333333L28.4264640625,153.4L28.534293229166664,169.13333333333335L28.578580208333335,153.4L28.788461979166666,157.33333333333331L28.803866145833336,165.2L28.929025,165.2L28.97716302083333,145.53333333333333L29.22940625,157.33333333333331L29.327607812500002,161.26666666666665L29.679978125,161.26666666666665L29.92644479166667,169.13333333333335L29.9399234375,165.2L29.999614583333333,169.13333333333335L30.020795312500002,165.2L30.230677083333333,153.4L30.263410937499998,157.33333333333331L30.359686979166668,169.13333333333335L30.411676041666666,165.2L30.45596302083333,165.2L30.588823958333332,157.33333333333331L30.6388875,153.4L30.698578645833333,161.26666666666665L30.835290625,165.2L30.973928125,169.13333333333335L31.043246875,165.2L31.110640104166666,165.2L31.135671875000003,145.53333333333333L31.2107671875,173.06666666666666L31.368659895833336,169.13333333333335L31.593945833333333,165.2L31.68637083333333,157.33333333333331L31.7191046875,169.13333333333335L31.790348958333333,125.86666666666667L31.7999765625,153.4L31.809604166666666,157.33333333333331L32.013709375,169.13333333333335L32.217814583333336,145.53333333333333L32.298686458333336,165.2L32.32949479166667,165.2L32.39881354166667,157.33333333333331L32.41806875,149.46666666666667L32.452728125,165.2L32.6202484375,169.13333333333335L32.69919479166666,169.13333333333335L32.743481770833334,157.33333333333331L32.75503489583333,165.2L32.99765052083333,165.2L33.149766666666665,169.13333333333335L33.34231875,161.26666666666665L33.37312708333334,169.13333333333335L33.38660572916667,169.13333333333335L33.41933958333333,165.2L33.8679859375,169.13333333333335L33.91804947916667,165.2L33.979666145833335,169.13333333333335L34.070165625,169.13333333333335L34.09712291666666,165.2L34.100973958333334,169.13333333333335L34.185696875000005,153.4L34.21650520833333,157.33333333333331L34.42061041666667,161.26666666666665L34.47645052083333,129.8L34.643970833333334,149.46666666666667L34.81149114583334,169.13333333333335L34.81149114583334,169.13333333333335L34.823044270833336,153.4L35.0232984375,165.2L35.0926171875,165.2L35.109946875,157.33333333333331L35.12920208333333,161.26666666666665L35.248584375,165.2L35.25050989583333,153.4L35.29864791666667,169.13333333333335L35.310201041666666,165.2L35.3352328125,153.4L35.47001927083333,157.33333333333331L35.52971041666667,169.13333333333335L35.552816666666665,165.2L36.172834374999994,169.13333333333335L36.421226562499996,169.13333333333335L36.48669427083333,161.26666666666665L36.6465125,145.53333333333333L37.145222395833336,145.53333333333333L37.47063541666667,153.4L37.67666614583333,149.46666666666667L37.81145260416667,153.4L37.82108020833333,169.13333333333335L38.113759375,149.46666666666667L38.402587499999996,141.6L38.56625677083333,157.33333333333331L38.728000520833334,145.53333333333333L38.79346822916667,149.46666666666667L38.799244791666666,169.13333333333335L38.8011703125,145.53333333333333L39.070743229166666,149.46666666666667L39.438517708333336,169.13333333333335L39.59448489583333,153.4L39.692686458333334,169.13333333333335L39.79281354166667,145.53333333333333L39.869834374999996,165.2L39.939153125,165.2L40.51488385416667,153.4L40.59575572916667,110.13333333333334L40.59960677083333,165.2L40.78253125,153.4L40.846073437499996,165.2L41.119497395833335,169.13333333333335L41.13875260416666,157.33333333333331L41.17918854166667,169.13333333333335L41.41987864583333,153.4L41.51422916666667,149.46666666666667L41.54118645833333,137.66666666666666L41.5450375,169.13333333333335L41.58932447916667,161.26666666666665L41.75299375,161.26666666666665L42.082257812499996,141.6L42.2208953125,165.2L42.367234895833334,165.2L42.54053177083333,153.4L42.586744270833336,153.4L42.609850520833334,149.46666666666667L42.873646875,145.53333333333333L42.9025296875,157.33333333333331L42.95066770833333,165.2L43.303038020833334,169.13333333333335L43.3531015625,145.53333333333333L43.370431249999996,157.33333333333331L43.399314062500004,169.13333333333335L43.50521770833333,153.4L43.536026041666666,129.8L43.551430208333336,141.6L43.66888697916667,165.2L43.684291145833335,165.2L43.88261979166667,161.26666666666665L43.94616197916667,157.33333333333331L43.95001302083333,137.66666666666666L44.362074479166665,141.6L44.510339583333334,153.4L44.795316666666665,169.13333333333335L44.89544375,153.4L44.99749635416667,149.46666666666667L45.25166510416667,141.6L45.48850416666667,129.8L45.679130729166666,137.66666666666666L45.692609375,169.13333333333335L45.72726874999999,161.26666666666665L45.90441666666667,157.33333333333331L46.083490104166664,173.06666666666666L46.1142984375,161.26666666666665L46.270265625,145.53333333333333L46.32610572916666,157.33333333333331L46.333807812500005,153.4L46.522508854166674,161.26666666666665L46.587976562499996,145.53333333333333L46.805560416666665,133.73333333333332L47.144452083333334,165.2L47.18103697916666,165.2L47.20414322916667,149.46666666666667L47.587321874999994,165.2L47.598875,157.33333333333331L47.864596875000004,165.2L48.003234375,161.26666666666665L48.328647395833336,161.26666666666665L48.53275260416667,165.2L49.0025796875,153.4L49.077675,149.46666666666667L49.14506822916666,165.2L49.46855572916667,141.6L49.5860125,133.73333333333332L49.95763802083333,141.6L49.965340104166664,137.66666666666666L50.13671145833333,121.93333333333334L50.33311458333333,129.8L50.714367708333334,153.4L50.73362291666667,157.33333333333331L50.8048671875,169.13333333333335L51.028227604166666,118.00000000000001L51.0474828125,161.26666666666665L51.32090677083333,153.4L51.47879947916667,137.66666666666666L51.561596875000006,157.33333333333331L51.58085208333333,153.4L51.7637765625,153.4L51.76570208333334,153.4L51.8099890625,145.53333333333333L51.99291354166667,169.13333333333335L52.09111510416667,169.13333333333335L52.22975260416667,145.53333333333333L52.25093333333333,165.2L52.283667187499994,157.33333333333331L52.41845364583333,161.26666666666665L52.520506250000004,169.13333333333335L52.55131458333334,153.4L52.872876562500004,149.46666666666667L53.086609374999995,165.2L53.14052395833333,161.26666666666665L53.402394791666666,133.73333333333332L53.50444739583333,137.66666666666666L53.57376614583333,121.93333333333334L53.608425520833336,137.66666666666666L53.69507395833333,141.6L54.001231770833336,133.73333333333332L54.122539583333335,161.26666666666665L54.15719895833333,157.33333333333331L54.272730208333336,157.33333333333331L54.3978890625,141.6L54.45758020833333,145.53333333333333L54.596217708333334,153.4L55.094927604166664,165.2L55.11033177083334,169.13333333333335L55.20853333333333,137.66666666666666L55.505063541666665,133.73333333333332L55.56282916666667,145.53333333333333L55.67836041666666,137.66666666666666L55.974890625,141.6L56.026879687500006,165.2L56.09812395833333,165.2L56.17129375,157.33333333333331L56.18669791666667,165.2L56.24831458333334,145.53333333333333L56.402356250000004,133.73333333333332L56.42161145833333,161.26666666666665L56.47937708333333,165.2L57.024299479166665,169.13333333333335L57.07051197916667,157.33333333333331L57.149458333333335,133.73333333333332L57.530711458333336,169.13333333333335L57.704008333333334,118.00000000000001L57.86190104166667,141.6L57.97165572916666,169.13333333333335L58.479993229166666,157.33333333333331L58.53005677083333,141.6L58.76882135416667,157.33333333333331L59.12119166666667,157.33333333333331L59.290637499999995,133.73333333333332L59.58331666666667,165.2L59.63915677083334,161.26666666666665L59.74506041666667,169.13333333333335L59.797049479166674,157.33333333333331L59.808602604166666,157.33333333333331L59.89910208333333,157.33333333333331L60.035814062499995,133.73333333333332L60.1397921875,137.66666666666666L60.37085468750001,137.66666666666666L60.3824078125,145.53333333333333L60.42284375,161.26666666666665L60.476758333333336,141.6L60.4921625,157.33333333333331L60.573034375,165.2L60.75403333333333,145.53333333333333L60.85801145833333,153.4L61.30473229166666,165.2L61.51268854166666,157.33333333333331L61.62244322916667,153.4L61.709091666666666,161.26666666666665L61.77070833333334,169.13333333333335L61.8034421875,129.8L62.12500416666666,149.46666666666667L62.211652604166666,102.26666666666665L62.3117796875,157.33333333333331L62.35029010416667,149.46666666666667L62.40805572916667,165.2L62.60830989583333,145.53333333333333L62.997265104166665,165.2L63.174413020833335,129.8L63.5017515625,169.13333333333335L63.70008020833333,141.6L63.7674734375,125.86666666666667L63.84256875,165.2L63.93306822916667,153.4L64.59544739583333,165.2L64.62625572916667,133.73333333333332L64.80918020833333,145.53333333333333L64.8419140625,129.8L65.1769546875,133.73333333333332L65.23664583333333,137.66666666666666L65.46000625,118.00000000000001L65.5119953125,125.86666666666667L65.5466546875,125.86666666666667L65.67566458333333,149.46666666666667L65.70262187499999,165.2L65.748834375,149.46666666666667L66.29568229166667,161.26666666666665L66.32263958333334,141.6L66.49593645833333,161.26666666666665L66.55370208333333,137.66666666666666L66.9099234375,90.46666666666665L67.07359270833334,137.66666666666666L67.14291145833333,118.00000000000001L67.3258359375,153.4L67.3258359375,153.4L67.3836015625,145.53333333333333L67.65124895833333,141.6L67.67628072916666,145.53333333333333L68.31362812500001,165.2L68.42145729166667,161.26666666666665L68.43878697916666,102.26666666666665L68.57164791666666,137.66666666666666L68.79693385416667,169.13333333333335L68.8392953125,165.2L68.9432734375,137.66666666666666L68.95675208333333,125.86666666666667L68.97600729166666,129.8L69.10886822916667,165.2L69.14160208333334,133.73333333333332L69.29756927083334,149.46666666666667L69.399621875,145.53333333333333L69.52478072916666,153.4L69.5671421875,161.26666666666665L69.61720572916667,169.13333333333335L69.89255520833333,118.00000000000001L69.95224635416668,129.8L70.06585208333334,141.6L70.97854895833333,153.4L71.01320833333334,153.4L71.19998385416666,161.26666666666665L71.51191822916667,169.13333333333335L71.5773859375,141.6L71.79882083333334,137.66666666666666L71.90665,173.06666666666666L72.15311666666666,169.13333333333335L72.17429739583334,165.2L72.2936796875,149.46666666666667L72.334115625,165.2L72.5131890625,149.46666666666667L72.95413333333333,129.8L72.9984203125,169.13333333333335L73.03307968749999,153.4L73.11587708333334,161.26666666666665L73.26799322916666,145.53333333333333L73.535640625,137.66666666666666L73.6916078125,137.66666666666666L73.72241614583334,133.73333333333332L73.87260677083333,169.13333333333335L73.97658489583334,153.4L74.4656671875,145.53333333333333L74.75064427083333,169.13333333333335L74.94704739583332,153.4L74.96052604166667,149.46666666666667L75.21854583333332,145.53333333333333L75.39569374999999,125.86666666666667L75.81930833333334,141.6L76.34882656250001,141.6L76.37963489583333,114.06666666666665L76.40466666666667,149.46666666666667L76.57411250000001,98.33333333333334L76.7416328125,94.4L76.8802703125,137.66666666666666L77.01313125,161.26666666666665L77.19027916666667,98.33333333333334L77.31158697916666,110.13333333333334L77.77371197916666,133.73333333333332L77.90079635416667,98.33333333333334L77.95278541666666,129.8L78.74417447916667,149.46666666666667L78.76535520833333,165.2L78.92324791666667,121.93333333333334L78.95020520833334,145.53333333333333L79.30835208333333,86.53333333333335L79.39114947916667,169.13333333333335L79.43543645833333,59.00000000000001L79.6299140625,133.73333333333332L79.889859375,137.66666666666666L79.89371041666666,137.66666666666666L80.20179375,141.6L80.2768890625,157.33333333333331L80.40012239583334,125.86666666666667L80.48291979166666,125.86666666666667L80.58112135416665,43.26666666666667L80.7390140625,137.66666666666666L81.0105125,149.46666666666667L81.26083020833335,125.86666666666667L81.33255585937499,165.2L81.334,157.33333333333331L81.49381822916666,157.33333333333331L81.55928593750001,114.06666666666665L81.75809596354166,165.2L81.8481140625,118.00000000000001L81.89625208333334,125.86666666666667L81.96605221354166,169.13333333333335L82.0271875,70.8L82.131165625,137.66666666666666L82.40458958333333,165.2L82.43539791666667,133.73333333333332L82.708821875,141.6L82.73963020833332,118.00000000000001L82.87249114583334,137.66666666666666L82.91148294270833,157.33333333333331L82.92640572916666,149.46666666666667L83.18875794270834,133.73333333333332L83.240265625,153.4L83.32306302083333,149.46666666666667L83.3615734375,161.26666666666665L83.84873020833334,157.33333333333331L83.99121875,137.66666666666666L84.05090989583334,157.33333333333331L84.19147291666667,121.93333333333334L84.40713125,149.46666666666667L84.57465156250001,149.46666666666667L84.59198124999999,161.26666666666665L84.59246263020833,106.2L85.06758489583333,149.46666666666667L85.14653125,169.13333333333335L85.45894700520833,145.53333333333333L85.828165625,118.00000000000001L86.29029062500001,137.66666666666666L86.53098072916666,129.8L86.66817408854166,51.133333333333326L86.81980885416667,145.53333333333333L87.05472239583332,133.73333333333332L87.1047859375,145.53333333333333L87.241979296875,74.73333333333335L87.30504010416666,133.73333333333332L87.35365950520833,165.2L87.57894544270833,145.53333333333333L87.87306875,31.466666666666672L87.95057096354167,141.6L88.023259375,145.53333333333333L88.08487604166666,161.26666666666665L88.21003489583333,102.26666666666665L88.22351354166668,62.93333333333332L88.52196927083334,121.93333333333334L88.78191458333333,125.86666666666667L88.9648390625,145.53333333333333L89.3287625,149.46666666666667L89.6811328125,141.6L90.17599166666668,153.4L90.28574635416666,145.53333333333333L90.2934484375,149.46666666666667L90.4551921875,62.93333333333332L90.49370260416667,149.46666666666667L90.60730833333334,149.46666666666667L90.66699947916666,149.46666666666667L90.70550989583333,110.13333333333334L90.74594583333334,149.46666666666667L90.911540625,145.53333333333333L91.01744427083334,137.66666666666666L91.812684375,78.66666666666666L91.94169427083332,129.8L92.02834270833334,106.2L92.05337447916668,169.13333333333335L92.18623541666666,149.46666666666667L92.43125794270833,110.13333333333334L92.49431875,145.53333333333333L93.0315390625,129.8L93.05512669270833,118.00000000000001L93.21638906250001,137.66666666666666L93.87299166666666,133.73333333333332L93.92931315104167,161.26666666666665L94.17722395833333,129.8L94.33896770833334,149.46666666666667L94.50263697916667,149.46666666666667L95.02060208333333,90.46666666666665L95.09377187499999,70.8L95.45191875,149.46666666666667L95.70271783854167,78.66666666666666L96.08348958333333,157.33333333333331L96.29529687499999,137.66666666666666L96.77667708333334,125.86666666666667L96.9076125,110.13333333333334L97.15215364583332,78.66666666666666L97.374069921875,74.73333333333335L97.58539583333332,153.4L97.62438763020833,121.93333333333334L97.72018229166666,165.2L97.86267083333334,121.93333333333334L98.25547708333335,106.2L98.41529531249999,110.13333333333334L98.88127135416667,110.13333333333334L99.03194335937499,125.86666666666667L99.27070794270834,-0.9833333333333298L99.28948177083333,114.06666666666665L99.355430859375,145.53333333333333L99.47096210937501,82.6L99.56098020833333,133.73333333333332L99.6745859375,90.46666666666665L99.69961770833332,145.53333333333333L99.83103450520834,165.2L100.10830950520833,118.00000000000001L100.23876354166667,145.53333333333333L100.32396783854166,157.33333333333331L100.33744648437501,169.13333333333335L100.43757356770834,129.8L100.44671979166667,157.33333333333331L100.47993502604167,110.13333333333334L100.72014374999999,165.2L101.37096979166668,149.46666666666667L101.66557447916666,133.73333333333332L102.151287109375,129.8L102.18402096354166,90.46666666666665L102.34961575520833,161.26666666666665L102.769379296875,165.2L103.02354804687499,165.2L103.40480117187501,137.66666666666666L103.89773450520833,125.86666666666667L104.040223046875,118.00000000000001L104.10569075520833,145.53333333333333L104.15190325520832,129.8L104.629432421875,141.6L104.64916901041667,106.2L104.97987721354167,145.53333333333333L105.16280169270833,137.66666666666666L105.247524609375,86.53333333333335L105.43670703125,129.8L105.80640703125,-0.9833333333333298L106.08705169270834,125.86666666666667L106.28971276041668,114.06666666666665L106.44567994791667,149.46666666666667L106.916951171875,141.6L107.08639700520833,165.2L107.10998463541668,90.46666666666665L107.19037513020834,55.06666666666667L107.21396276041666,106.2L107.26017526041666,118.00000000000001L107.42191901041666,90.46666666666665L107.44502526041667,129.8L108.19164596354167,141.6L108.89494244791666,153.4L109.42060963541665,153.4L109.46297109375,149.46666666666667L109.68199908854167,133.73333333333332L109.99200794270834,141.6L110.00741210937501,23.599999999999994L110.085395703125,66.86666666666666L110.16819309895834,133.73333333333332L110.30057265625,149.46666666666667L110.41610390625,98.33333333333334L110.47338815104166,133.73333333333332L111.01445950520834,102.26666666666665L111.49247005208333,137.66666666666666L111.913677734375,114.06666666666665L112.25064388020833,133.73333333333332L112.42875455729167,141.6L112.46630221354167,110.13333333333334L113.18115182291668,133.73333333333332L113.24854505208333,137.66666666666666L113.49308619791665,153.4L113.56240494791666,94.4L113.59898984375,118.00000000000001L113.66493893229166,141.6L114.25174140624999,149.46666666666667L114.58100546875,51.133333333333326L114.58100546875,153.4L114.65610078125,43.26666666666667L114.69461119791666,118.00000000000001L114.82939765625,118.00000000000001L114.88908880208334,137.66666666666666L115.13748098958332,129.8L115.38009661458332,114.06666666666665L115.535582421875,102.26666666666665L115.88843411458333,133.73333333333332L115.89421067708332,70.8L116.1377890625,62.93333333333332L116.83338346354168,145.53333333333333L117.41922317708332,169.13333333333335L117.87123919270833,47.20000000000001L117.91552617187499,106.2L118.35358216145833,145.53333333333333L118.51003072916666,141.6L119.15700572916667,114.06666666666665L119.2340265625,39.33333333333333L119.72840403645834,137.66666666666666L119.90699609375001,59.00000000000001L119.96476171875,102.26666666666665L120.644951953125,118.00000000000001L120.70127343749999,157.33333333333331L120.99972916666667,121.93333333333334L121.18698606770833,153.4L121.211055078125,0L121.54465156250001,125.86666666666667L121.82337070312501,66.86666666666666L122.36829309895833,157.33333333333331L122.48960091145833,110.13333333333334L123.71326940104166,86.53333333333335L123.96551263020832,106.2L124.04253346354167,118.00000000000001L124.108001171875,74.73333333333335L124.55664752604167,145.53333333333333L124.58360481770833,141.6L124.75593893229166,66.86666666666666L124.94656549479166,125.86666666666667L126.09513867187499,121.93333333333334L126.17264088541666,149.46666666666667L126.24436653645833,98.33333333333334L126.83935247395833,169.13333333333335L127.20616419270833,157.33333333333331L127.39967903645834,125.86666666666667L127.92149518229166,129.8L128.05146783854167,39.33333333333333L128.15063216145833,110.13333333333334L128.18144049479167,90.46666666666665L128.59735299479166,94.4L129.29824257812498,125.86666666666667L129.49945950520834,149.46666666666667L129.73918684895833,141.6L130.22489947916668,129.8L130.55849596354167,106.2L130.647069921875,129.8L131.21221028645832,114.06666666666665L131.753281640625,165.2L132.05029322916667,74.73333333333335L132.12346302083333,114.06666666666665L132.9129265625,137.66666666666666L132.94373489583333,133.73333333333332L133.2595203125,129.8L133.78903854166666,94.4L134.32866575520833,137.66666666666666L134.41723971354168,161.26666666666665L134.43601354166665,114.06666666666665L134.702216796875,133.73333333333332L134.79079075520832,35.39999999999999L134.90680338541668,165.2L135.34293385416666,125.86666666666667L135.603360546875,66.86666666666666L136.45492213541667,121.93333333333334L137.14907239583331,118.00000000000001L137.50625651041668,161.26666666666665L137.82974401041665,102.26666666666665L138.05310442708333,137.66666666666666L138.47383072916665,62.93333333333332L138.54122395833335,129.8L138.60187786458334,31.466666666666672L138.99372135416667,133.73333333333332L139.08614635416666,129.8L139.24307630208332,102.26666666666665L139.36438411458332,19.666666666666675L139.56271276041667,90.46666666666665L139.58148658854168,133.73333333333332L139.83806223958334,114.06666666666665L139.85442916666668,70.8L139.85731744791667,157.33333333333331L139.87849817708332,153.4L140.081640625,125.86666666666667L140.42582747395835,90.46666666666665L140.60056848958334,78.66666666666666L140.75220325520834,125.86666666666667L140.97941471354167,137.66666666666666L141.096871484375,35.39999999999999L141.200849609375,153.4L141.34718919270833,137.66666666666666L141.87333776041666,125.86666666666667L141.97490898437502,66.86666666666666L142.31572617187499,141.6L142.471693359375,110.13333333333334L142.52994036458333,165.2L142.69216549479168,149.46666666666667L142.79181119791667,106.2L142.884717578125,94.4L142.89097552083334,35.39999999999999L142.94440872395833,74.73333333333335L143.225534765625,98.33333333333334L143.34347291666666,133.73333333333332L143.55142916666665,125.86666666666667L143.71702395833333,114.06666666666665L144.13438059895833,137.66666666666666L144.33078372395832,133.73333333333332L144.82275429687502,74.73333333333335L144.85163710937502,125.86666666666667L144.89929375,110.13333333333334L145.17705013020833,114.06666666666665L145.61029231770834,133.73333333333332L146.879210546875,137.66666666666666L146.97356106770832,70.8L147.168038671875,157.33333333333331L147.19740286458332,74.73333333333335L147.300899609375,121.93333333333334L147.70766588541667,43.26666666666667L148.11009973958335,-0.9833333333333298L148.13128046875002,125.86666666666667L148.291580078125,141.6L148.77344166666666,66.86666666666666L149.14699270833333,98.33333333333334L149.33665651041665,125.86666666666667L149.8459567708333,66.86666666666666L150.15355872395833,82.6L150.47175104166666,129.8L150.78512955729167,86.53333333333335L151.41477486979167,106.2L151.9635483072917,149.46666666666667L152.052122265625,125.86666666666667L152.98118606770834,141.6L152.985037109375,59.00000000000001L154.00411901041667,145.53333333333333L154.111466796875,141.6L154.741112109375,94.4L155.45981276041667,55.06666666666667L156.257459765625,98.33333333333334L156.33062955729164,-0.9833333333333298L156.6637446614583,153.4L157.09313580729167,0L157.28424375,59.00000000000001L157.82050130208333,153.4L158.42174518229166,121.93333333333334L158.97340690104167,-0.9833333333333298L159.30507786458335,59.00000000000001L159.53421484375,3.933333333333339L159.62182604166668,39.33333333333333L159.92076315104165,129.8L159.98478671875,114.06666666666665L160.02474127604168,133.73333333333332L160.19274296875,70.8L160.49119869791664,114.06666666666665L161.07078046875,70.8L161.36008997395834,98.33333333333334L161.87661093749998,35.39999999999999L162.09563893229168,121.93333333333334L162.92698255208333,43.26666666666667L163.46035182291666,106.2L163.50848984375,98.33333333333334L163.83245872395835,94.4L164.17472005208333,-0.9833333333333298L165.39790716145833,161.26666666666665L166.36018619791665,74.73333333333335L166.5450361979167,86.53333333333335L166.60328320312502,-0.9833333333333298L166.92917760416665,-0.9833333333333298L167.02160260416665,7.866666666666658L167.35568046875,-0.9833333333333298L167.712383203125,98.33333333333334L167.73115703124998,62.93333333333332L167.91263736979167,-0.9833333333333298L168.40557070312502,31.466666666666672L168.47874049479168,110.13333333333334L168.6347076822917,86.53333333333335L168.7738265625,-0.9833333333333298L168.88887643229168,15.733333333333336L169.519003125,110.13333333333334L169.59698671875,74.73333333333335L169.6239440104167,141.6L169.7028903645833,141.6L170.51449739583333,23.599999999999994L170.9342609375,70.8L171.24426979166668,35.39999999999999L172.25950065104166,-0.9833333333333298L172.37358776041668,-0.9833333333333298L172.55554947916667,110.13333333333334L173.03211588541666,0L173.1582375,55.06666666666667L173.27376875000002,157.33333333333331L173.37678411458333,114.06666666666665L173.88993541666667,15.733333333333336L174.10511236979167,-0.9833333333333298L174.14939934895833,106.2L174.23412226562502,82.6L174.2846671875,82.6L175.19014335937499,-0.9833333333333298L175.21180546875001,27.533333333333335L175.25031588541665,118.00000000000001L175.84241354166667,102.26666666666665L175.87996119791666,125.86666666666667L176.31416614583335,169.13333333333335L176.71660000000003,43.26666666666667L176.751259375,125.86666666666667L176.81817122395833,106.2L177.46707174479167,-0.9833333333333298L177.66925143229167,98.33333333333334L177.81799791666668,129.8L177.98022304687498,62.93333333333332L178.01440104166664,31.466666666666672L178.26134908854166,-0.9833333333333298L178.52514544270832,70.8L178.64934153645834,86.53333333333335L178.86885091145834,7.866666666666658L179.41377330729168,86.53333333333335L179.43639817708333,110.13333333333334L179.74400013020832,-0.9833333333333298L180.06411796875003,90.46666666666665L180.65814114583333,62.93333333333332L180.87716914062503,47.20000000000001L180.87813190104166,149.46666666666667L181.16166484374997,129.8L181.17706901041666,165.2L181.20113802083333,27.533333333333335L181.27719609375,129.8L181.41775911458333,110.13333333333334L182.47872109374998,35.39999999999999L183.04049179687502,121.93333333333334L183.0477125,114.06666666666665L183.26914739583333,15.733333333333336L183.335096484375,86.53333333333335L183.87039127604166,129.8L184.36476875,-0.9833333333333298L184.36813841145832,121.93333333333334L184.43360611979168,141.6L184.45430546875002,-0.9833333333333298L184.9491643229167,110.13333333333334L185.02233411458334,47.20000000000001L185.15808333333334,94.4L185.541743359375,86.53333333333335L186.03804635416665,62.93333333333332L186.333132421875,86.53333333333335L186.34372278645833,74.73333333333335L186.84002578124998,51.133333333333326L187.41431236979167,7.866666666666658L188.01940729166665,-0.9833333333333298L188.09017018229167,35.39999999999999L188.13349440104167,94.4L188.14889856770833,70.8L188.55181380208336,82.6L188.71403893229166,94.4L188.74629140625,145.53333333333333L189.79088645833332,137.66666666666666L190.708878515625,15.733333333333336L191.049695703125,106.2L191.31301067708333,110.13333333333334L192.245444140625,141.6L192.28491731770833,78.66666666666666L192.34316432291666,27.533333333333335L193.34347239583334,145.53333333333333L193.57549765624998,145.53333333333333L194.67689557291666,47.20000000000001L195.20352552083335,43.26666666666667L195.226150390625,-0.9833333333333298L196.22260742187498,102.26666666666665L196.39975533854167,98.33333333333334L196.59134466145832,82.6L197.06454140625,114.06666666666665L197.30234322916667,106.2L197.530998828125,102.26666666666665L197.73943645833336,55.06666666666667L198.14957239583333,169.13333333333335L198.15294205729165,70.8L198.75803697916666,106.2L199.10559348958333,27.533333333333335L199.1816515625,118.00000000000001L199.51091562500002,149.46666666666667L199.56242330729165,137.66666666666666L199.92875364583332,102.26666666666665L200.02551106770835,-0.9833333333333298L200.80871666666664,51.133333333333326L200.98442044270834,153.4L201.93899739583335,102.26666666666665L202.45311145833335,118.00000000000001L202.53879713541667,47.20000000000001L203.89147552083335,-0.9833333333333298L204.21785130208335,133.73333333333332L206.13567005208333,78.66666666666666L206.48611484375002,145.53333333333333L206.519330078125,-0.9833333333333298L206.65411653645833,110.13333333333334L207.12875742187498,-0.9833333333333298L207.23610520833333,165.2L207.42191796875,59.00000000000001L207.47390703125,90.46666666666665L207.57307135416667,149.46666666666667L207.58799414062497,141.6L207.81809388020832,141.6L208.284069921875,145.53333333333333L209.462488671875,11.799999999999997L209.517366015625,39.33333333333333L210.06228841145833,15.733333333333336L210.19033554687502,-0.9833333333333298L210.69385924479167,137.66666666666666L210.74632968749998,35.39999999999999L210.86715611979167,-0.9833333333333298L211.38271432291666,39.33333333333333L211.70572044270833,55.06666666666667L212.94383033854166,47.20000000000001L212.98089661458334,125.86666666666667L213.19318528645832,-0.9833333333333298L214.904010546875,7.866666666666658L215.0094328125,110.13333333333334L215.22027734374998,39.33333333333333L216.01648020833335,3.933333333333339L216.02129401041668,-0.9833333333333298L216.21432747395832,110.13333333333334L216.21962265625,118.00000000000001L216.30242005208333,27.533333333333335L217.31331848958334,62.93333333333332L217.64884049479167,110.13333333333334L217.67435364583335,-0.9833333333333298L217.68927643229168,114.06666666666665L220.12409752604165,106.2L220.22085494791668,-0.9833333333333298L220.24011015625,106.2L220.51738515625001,106.2L220.74941041666668,82.6L220.94966458333334,59.00000000000001L221.0960041666667,51.133333333333326L221.17158085937498,31.466666666666672L221.26015481770833,-0.9833333333333298L221.34391497395833,39.33333333333333L221.460408984375,47.20000000000001L221.88065390625,78.66666666666666L222.02699348958333,-0.9833333333333298L222.49778333333333,-0.9833333333333298L222.54977239583334,90.46666666666665L222.693705078125,62.93333333333332L223.30457656250002,-0.9833333333333298L223.73396770833335,114.06666666666665L224.3178819010417,90.46666666666665L224.62115143229167,94.4L225.02214114583333,90.46666666666665L225.36536523437502,90.46666666666665L225.60990638020834,3.933333333333339L226.18611848958335,169.13333333333335L228.11452760416668,3.933333333333339L228.96753333333334,-0.9833333333333298L230.08240989583334,-0.9833333333333298L230.3635359375,90.46666666666665L230.54790455729167,-0.9833333333333298L238.54603671875,-0.9833333333333298L238.57491953125,27.533333333333335L239.09047773437499,11.799999999999997L239.82410117187501,-0.9833333333333298L240.71032213541667,-0.9833333333333298L241.63072109375,141.6L241.67308255208334,15.733333333333336L241.81508971354168,133.73333333333332L242.3561610677083,94.4L242.70131067708334,23.599999999999994L242.73211901041665,133.73333333333332L242.99398984375,47.20000000000001L243.97504270833335,0L245.80813854166666,43.26666666666667L246.71939127604168,43.26666666666667L246.78485898437498,118.00000000000001L247.81693815104168,78.66666666666666L248.64683763020832,-0.9833333333333298L249.23027044270833,145.53333333333333L249.5763828125,23.599999999999994L249.72994309895833,27.533333333333335L250.05391197916668,31.466666666666672L250.84096861979168,-0.9833333333333298L251.59769830729167,-0.9833333333333298L251.998206640625,3.933333333333339L252.51424622395834,90.46666666666665L252.75445494791666,114.06666666666665L252.85121236979165,-0.9833333333333298L253.479894921875,-0.9833333333333298L253.62045794270833,110.13333333333334L254.01759661458334,-0.9833333333333298L254.22555286458334,153.4L254.25732395833333,-0.9833333333333298L254.4055890625,70.8L254.80513463541666,43.26666666666667L255.55753190104167,98.33333333333334L257.1369403645833,-0.9833333333333298L257.2707640625,-0.9833333333333298L258.531498828125,153.4L258.97533138020833,-0.9833333333333298L259.24971809895834,19.666666666666675L259.34647552083334,-0.9833333333333298L259.36765625,153.4L259.42927291666666,-0.9833333333333298L260.8060203125,23.599999999999994L261.7861104166667,70.8L261.88142369791666,98.33333333333334L264.0832567708333,-0.9833333333333298L264.37930559895835,-0.9833333333333298L264.44477330729165,62.93333333333332L264.579559765625,66.86666666666666" style="fill: none;" fill="none"></path></g></g></g></g></g></g><g transform="translate(41, 177)" clip-path="url(#clip_1)"><clipPath id="clip_1"><rect width="288" height="23"></rect></clipPath><g><g><line x1="0" y1="0" x2="0" y2="5" style="visibility: inherit;" fill="rgb(0, 0, 0)" stroke="rgb(204, 204, 204)" stroke-width="1px"></line><line x1="24.069010416666664" y1="0" x2="24.069010416666664" y2="5" style="visibility: inherit;" fill="rgb(0, 0, 0)" stroke="rgb(204, 204, 204)" stroke-width="1px"></line><line x1="48.13802083333333" y1="0" x2="48.13802083333333" y2="5" style="visibility: inherit;" fill="rgb(0, 0, 0)" stroke="rgb(204, 204, 204)" stroke-width="1px"></line><line x1="72.20703125" y1="0" x2="72.20703125" y2="5" style="visibility: inherit;" fill="rgb(0, 0, 0)" stroke="rgb(204, 204, 204)" stroke-width="1px"></line><line x1="96.27604166666666" y1="0" x2="96.27604166666666" y2="5" style="visibility: inherit;" fill="rgb(0, 0, 0)" stroke="rgb(204, 204, 204)" stroke-width="1px"></line><line x1="120.34505208333334" y1="0" x2="120.34505208333334" y2="5" style="visibility: inherit;" fill="rgb(0, 0, 0)" stroke="rgb(204, 204, 204)" stroke-width="1px"></line><line x1="144.4140625" y1="0" x2="144.4140625" y2="5" style="visibility: inherit;" fill="rgb(0, 0, 0)" stroke="rgb(204, 204, 204)" stroke-width="1px"></line><line x1="168.48307291666669" y1="0" x2="168.48307291666669" y2="5" style="visibility: inherit;" fill="rgb(0, 0, 0)" stroke="rgb(204, 204, 204)" stroke-width="1px"></line><line x1="192.55208333333331" y1="0" x2="192.55208333333331" y2="5" style="visibility: inherit;" fill="rgb(0, 0, 0)" stroke="rgb(204, 204, 204)" stroke-width="1px"></line><line x1="216.62109375" y1="0" x2="216.62109375" y2="5" style="visibility: inherit;" fill="rgb(0, 0, 0)" stroke="rgb(204, 204, 204)" stroke-width="1px"></line><line x1="240.69010416666669" y1="0" x2="240.69010416666669" y2="5" style="visibility: inherit;" fill="rgb(0, 0, 0)" stroke="rgb(204, 204, 204)" stroke-width="1px"></line><line x1="264.7591145833333" y1="0" x2="264.7591145833333" y2="5" style="visibility: inherit;" fill="rgb(0, 0, 0)" stroke="rgb(204, 204, 204)" stroke-width="1px"></line><line x1="288.828125" y1="0" x2="288.828125" y2="5" style="visibility: inherit;" fill="rgb(0, 0, 0)" stroke="rgb(204, 204, 204)" stroke-width="1px"></line></g><g transform="translate(0, 8)"><text x="0" y="0" dx="0em" dy="0.95em" style="text-anchor: middle; visibility: hidden; font-family: Roboto, sans-serif; font-size: 12px; font-weight: 200;" fill="rgb(33, 33, 33)" stroke="none" stroke-width="1px">-200k</text><text x="24.069010416666664" y="0" dx="0em" dy="0.95em" style="text-anchor: middle; visibility: inherit; font-family: Roboto, sans-serif; font-size: 12px; font-weight: 200;" fill="rgb(33, 33, 33)" stroke="none" stroke-width="1px">0</text><text x="48.13802083333333" y="0" dx="0em" dy="0.95em" style="text-anchor: middle; visibility: hidden; font-family: Roboto, sans-serif; font-size: 12px; font-weight: 200;" fill="rgb(33, 33, 33)" stroke="none" stroke-width="1px">200k</text><text x="72.20703125" y="0" dx="0em" dy="0.95em" style="text-anchor: middle; visibility: inherit; font-family: Roboto, sans-serif; font-size: 12px; font-weight: 200;" fill="rgb(33, 33, 33)" stroke="none" stroke-width="1px">400k</text><text x="96.27604166666666" y="0" dx="0em" dy="0.95em" style="text-anchor: middle; visibility: hidden; font-family: Roboto, sans-serif; font-size: 12px; font-weight: 200;" fill="rgb(33, 33, 33)" stroke="none" stroke-width="1px">600k</text><text x="120.34505208333334" y="0" dx="0em" dy="0.95em" style="text-anchor: middle; visibility: inherit; font-family: Roboto, sans-serif; font-size: 12px; font-weight: 200;" fill="rgb(33, 33, 33)" stroke="none" stroke-width="1px">800k</text><text x="144.4140625" y="0" dx="0em" dy="0.95em" style="text-anchor: middle; visibility: hidden; font-family: Roboto, sans-serif; font-size: 12px; font-weight: 200;" fill="rgb(33, 33, 33)" stroke="none" stroke-width="1px">1M</text><text x="168.48307291666669" y="0" dx="0em" dy="0.95em" style="text-anchor: middle; visibility: inherit; font-family: Roboto, sans-serif; font-size: 12px; font-weight: 200;" fill="rgb(33, 33, 33)" stroke="none" stroke-width="1px">1.2M</text><text x="192.55208333333331" y="0" dx="0em" dy="0.95em" style="text-anchor: middle; visibility: hidden; font-family: Roboto, sans-serif; font-size: 12px; font-weight: 200;" fill="rgb(33, 33, 33)" stroke="none" stroke-width="1px">1.4M</text><text x="216.62109375" y="0" dx="0em" dy="0.95em" style="text-anchor: middle; visibility: inherit; font-family: Roboto, sans-serif; font-size: 12px; font-weight: 200;" fill="rgb(33, 33, 33)" stroke="none" stroke-width="1px">1.6M</text><text x="240.69010416666669" y="0" dx="0em" dy="0.95em" style="text-anchor: middle; visibility: hidden; font-family: Roboto, sans-serif; font-size: 12px; font-weight: 200;" fill="rgb(33, 33, 33)" stroke="none" stroke-width="1px">1.8M</text><text x="264.7591145833333" y="0" dx="0em" dy="0.95em" style="text-anchor: middle; visibility: inherit; font-family: Roboto, sans-serif; font-size: 12px; font-weight: 200;" fill="rgb(33, 33, 33)" stroke="none" stroke-width="1px">2M</text><text x="288.828125" y="0" dx="0em" dy="0.95em" style="text-anchor: middle; visibility: hidden; font-family: Roboto, sans-serif; font-size: 12px; font-weight: 200;" fill="rgb(33, 33, 33)" stroke="none" stroke-width="1px">2.2M</text></g><line x1="0" y1="0" x2="288.828125" y2="0" fill="rgb(0, 0, 0)" stroke="rgb(204, 204, 204)" stroke-width="1px"></line></g></g></g></g></svg>